%TF.GenerationSoftware,KiCad,Pcbnew,9.0.3*%
%TF.CreationDate,2025-07-16T15:45:05+08:00*%
%TF.ProjectId,PiHAT_Test,50694841-545f-4546-9573-742e6b696361,rev?*%
%TF.SameCoordinates,Original*%
%TF.FileFunction,Soldermask,Bot*%
%TF.FilePolarity,Negative*%
%FSLAX46Y46*%
G04 Gerber Fmt 4.6, Leading zero omitted, Abs format (unit mm)*
G04 Created by KiCad (PCBNEW 9.0.3) date 2025-07-16 15:45:05*
%MOMM*%
%LPD*%
G01*
G04 APERTURE LIST*
G04 Aperture macros list*
%AMRoundRect*
0 Rectangle with rounded corners*
0 $1 Rounding radius*
0 $2 $3 $4 $5 $6 $7 $8 $9 X,Y pos of 4 corners*
0 Add a 4 corners polygon primitive as box body*
4,1,4,$2,$3,$4,$5,$6,$7,$8,$9,$2,$3,0*
0 Add four circle primitives for the rounded corners*
1,1,$1+$1,$2,$3*
1,1,$1+$1,$4,$5*
1,1,$1+$1,$6,$7*
1,1,$1+$1,$8,$9*
0 Add four rect primitives between the rounded corners*
20,1,$1+$1,$2,$3,$4,$5,0*
20,1,$1+$1,$4,$5,$6,$7,0*
20,1,$1+$1,$6,$7,$8,$9,0*
20,1,$1+$1,$8,$9,$2,$3,0*%
G04 Aperture macros list end*
%ADD10C,6.000000*%
%ADD11R,1.700000X1.700000*%
%ADD12O,1.700000X1.700000*%
%ADD13C,1.700000*%
%ADD14RoundRect,0.249999X-0.850001X-0.850001X0.850001X-0.850001X0.850001X0.850001X-0.850001X0.850001X0*%
%ADD15C,2.200000*%
%ADD16R,1.800000X1.800000*%
%ADD17C,1.800000*%
%ADD18RoundRect,0.250000X0.650000X1.550000X-0.650000X1.550000X-0.650000X-1.550000X0.650000X-1.550000X0*%
%ADD19O,1.800000X3.600000*%
%ADD20C,1.400000*%
%ADD21RoundRect,0.249999X-0.850001X0.850001X-0.850001X-0.850001X0.850001X-0.850001X0.850001X0.850001X0*%
%ADD22RoundRect,0.249999X0.850001X0.850001X-0.850001X0.850001X-0.850001X-0.850001X0.850001X-0.850001X0*%
%ADD23R,2.000000X1.905000*%
%ADD24O,2.000000X1.905000*%
G04 APERTURE END LIST*
D10*
%TO.C,H1*%
X126600000Y-67710000D03*
X126600000Y-125710000D03*
X149600000Y-67710000D03*
X149600000Y-125710000D03*
D11*
X127870000Y-72580000D03*
D12*
X125330000Y-72580000D03*
X127870000Y-75120000D03*
X125330000Y-75120000D03*
X127870000Y-77660000D03*
X125330000Y-77660000D03*
X127870000Y-80200000D03*
X125330000Y-80200000D03*
X127870000Y-82740000D03*
X125330000Y-82740000D03*
X127870000Y-85280000D03*
X125330000Y-85280000D03*
X127870000Y-87820000D03*
X125330000Y-87820000D03*
X127870000Y-90360000D03*
X125330000Y-90360000D03*
X127870000Y-92900000D03*
X125330000Y-92900000D03*
X127870000Y-95440000D03*
X125330000Y-95440000D03*
X127870000Y-97980000D03*
X125330000Y-97980000D03*
X127870000Y-100520000D03*
X125330000Y-100520000D03*
X127870000Y-103060000D03*
X125330000Y-103060000D03*
X127870000Y-105600000D03*
X125330000Y-105600000D03*
X127870000Y-108140000D03*
X125330000Y-108140000D03*
X127870000Y-110680000D03*
X125330000Y-110680000D03*
X127870000Y-113220000D03*
X125330000Y-113220000D03*
X127870000Y-115760000D03*
X125330000Y-115760000D03*
X127870000Y-118300000D03*
X125330000Y-118300000D03*
X127870000Y-120840000D03*
X125330000Y-120840000D03*
%TD*%
D11*
%TO.C,CN5*%
X142615000Y-111960000D03*
D13*
X142615000Y-114500000D03*
X142615000Y-117040000D03*
%TD*%
D11*
%TO.C,CN6*%
X141040000Y-123615000D03*
D13*
X138500000Y-123615000D03*
X135960000Y-123615000D03*
%TD*%
D14*
%TO.C,D6*%
X136447818Y-111500000D03*
D15*
X138987818Y-111500000D03*
%TD*%
D16*
%TO.C,D1*%
X132000000Y-115730000D03*
D17*
X132000000Y-118270000D03*
%TD*%
D18*
%TO.C,U2*%
X141887500Y-67142500D03*
D19*
X138077500Y-67142500D03*
%TD*%
D20*
%TO.C,R15*%
X132000000Y-123000000D03*
X132000000Y-120460000D03*
%TD*%
D14*
%TO.C,D4*%
X136447818Y-92000000D03*
D15*
X138987818Y-92000000D03*
%TD*%
D11*
%TO.C,CN1*%
X142615000Y-73920000D03*
D13*
X142615000Y-76460000D03*
X142615000Y-79000000D03*
%TD*%
D20*
%TO.C,R3*%
X139000000Y-76500000D03*
X136460000Y-76500000D03*
%TD*%
%TO.C,R8*%
X139000000Y-105000000D03*
X136460000Y-105000000D03*
%TD*%
D11*
%TO.C,CN2*%
X142615000Y-83460000D03*
D13*
X142615000Y-86000000D03*
X142615000Y-88540000D03*
%TD*%
D21*
%TO.C,D7*%
X139000000Y-117447818D03*
D15*
X139000000Y-119987818D03*
%TD*%
D14*
%TO.C,D3*%
X136447818Y-82500000D03*
D15*
X138987818Y-82500000D03*
%TD*%
D14*
%TO.C,D5*%
X136460000Y-101000000D03*
D15*
X139000000Y-101000000D03*
%TD*%
D11*
%TO.C,CN4*%
X142500000Y-102420000D03*
D13*
X142500000Y-104960000D03*
X142500000Y-107500000D03*
%TD*%
D11*
%TO.C,CN3*%
X142615000Y-92960000D03*
D13*
X142615000Y-95500000D03*
X142615000Y-98040000D03*
%TD*%
D22*
%TO.C,D2*%
X139000000Y-73500000D03*
D15*
X136460000Y-73500000D03*
%TD*%
D20*
%TO.C,R6*%
X139000000Y-95500000D03*
X136460000Y-95500000D03*
%TD*%
D23*
%TO.C,U1*%
X132950000Y-77040000D03*
D24*
X132950000Y-74500000D03*
X132950000Y-71960000D03*
%TD*%
D20*
%TO.C,R10*%
X139000000Y-114500000D03*
X136460000Y-114500000D03*
%TD*%
%TO.C,R4*%
X139000000Y-86000000D03*
X136460000Y-86000000D03*
%TD*%
%TO.C,R12*%
X136000000Y-117280000D03*
X136000000Y-119820000D03*
%TD*%
D11*
%TO.C,J1_I2C1*%
X132500000Y-83880000D03*
D13*
X132500000Y-86420000D03*
X132500000Y-88960000D03*
X132500000Y-91500000D03*
X132500000Y-94040000D03*
%TD*%
M02*
