%TF.GenerationSoftware,KiCad,Pcbnew,9.0.3*%
%TF.CreationDate,2025-07-16T15:45:04+08:00*%
%TF.ProjectId,PiHAT_Test,50694841-545f-4546-9573-742e6b696361,rev?*%
%TF.SameCoordinates,Original*%
%TF.FileFunction,Copper,L1,Top*%
%TF.FilePolarity,Positive*%
%FSLAX46Y46*%
G04 Gerber Fmt 4.6, Leading zero omitted, Abs format (unit mm)*
G04 Created by KiCad (PCBNEW 9.0.3) date 2025-07-16 15:45:04*
%MOMM*%
%LPD*%
G01*
G04 APERTURE LIST*
G04 Aperture macros list*
%AMRoundRect*
0 Rectangle with rounded corners*
0 $1 Rounding radius*
0 $2 $3 $4 $5 $6 $7 $8 $9 X,Y pos of 4 corners*
0 Add a 4 corners polygon primitive as box body*
4,1,4,$2,$3,$4,$5,$6,$7,$8,$9,$2,$3,0*
0 Add four circle primitives for the rounded corners*
1,1,$1+$1,$2,$3*
1,1,$1+$1,$4,$5*
1,1,$1+$1,$6,$7*
1,1,$1+$1,$8,$9*
0 Add four rect primitives between the rounded corners*
20,1,$1+$1,$2,$3,$4,$5,0*
20,1,$1+$1,$4,$5,$6,$7,0*
20,1,$1+$1,$6,$7,$8,$9,0*
20,1,$1+$1,$8,$9,$2,$3,0*%
G04 Aperture macros list end*
%TA.AperFunction,Conductor*%
%ADD10C,0.200000*%
%TD*%
%TA.AperFunction,ComponentPad*%
%ADD11R,1.700000X1.700000*%
%TD*%
%TA.AperFunction,ComponentPad*%
%ADD12O,1.700000X1.700000*%
%TD*%
%TA.AperFunction,ComponentPad*%
%ADD13C,1.700000*%
%TD*%
%TA.AperFunction,ComponentPad*%
%ADD14RoundRect,0.249999X-0.850001X-0.850001X0.850001X-0.850001X0.850001X0.850001X-0.850001X0.850001X0*%
%TD*%
%TA.AperFunction,ComponentPad*%
%ADD15C,2.200000*%
%TD*%
%TA.AperFunction,ComponentPad*%
%ADD16R,1.800000X1.800000*%
%TD*%
%TA.AperFunction,ComponentPad*%
%ADD17C,1.800000*%
%TD*%
%TA.AperFunction,ComponentPad*%
%ADD18RoundRect,0.250000X0.650000X1.550000X-0.650000X1.550000X-0.650000X-1.550000X0.650000X-1.550000X0*%
%TD*%
%TA.AperFunction,ComponentPad*%
%ADD19O,1.800000X3.600000*%
%TD*%
%TA.AperFunction,ComponentPad*%
%ADD20C,1.400000*%
%TD*%
%TA.AperFunction,ComponentPad*%
%ADD21RoundRect,0.249999X-0.850001X0.850001X-0.850001X-0.850001X0.850001X-0.850001X0.850001X0.850001X0*%
%TD*%
%TA.AperFunction,ComponentPad*%
%ADD22RoundRect,0.249999X0.850001X0.850001X-0.850001X0.850001X-0.850001X-0.850001X0.850001X-0.850001X0*%
%TD*%
%TA.AperFunction,ComponentPad*%
%ADD23R,2.000000X1.905000*%
%TD*%
%TA.AperFunction,ComponentPad*%
%ADD24O,2.000000X1.905000*%
%TD*%
%TA.AperFunction,Conductor*%
%ADD25C,0.400000*%
%TD*%
G04 APERTURE END LIST*
D10*
%TO.N,GPIO27*%
X139000000Y-113000000D02*
X137500000Y-113500000D01*
%TD*%
D11*
%TO.P,H1,1,1*%
%TO.N,+3.3V*%
X127870000Y-72580000D03*
D12*
%TO.P,H1,2,2*%
%TO.N,+5V*%
X125330000Y-72580000D03*
%TO.P,H1,3,3*%
%TO.N,Net-(H1-Pad3)*%
X127870000Y-75120000D03*
%TO.P,H1,4,4*%
%TO.N,+5V*%
X125330000Y-75120000D03*
%TO.P,H1,5,5*%
%TO.N,Net-(H1-Pad5)*%
X127870000Y-77660000D03*
%TO.P,H1,6,6*%
%TO.N,GND*%
X125330000Y-77660000D03*
%TO.P,H1,7,7*%
%TO.N,unconnected-(H1-Pad7)*%
X127870000Y-80200000D03*
%TO.P,H1,8,8*%
%TO.N,unconnected-(H1-Pad8)*%
X125330000Y-80200000D03*
%TO.P,H1,9,9*%
%TO.N,GND*%
X127870000Y-82740000D03*
%TO.P,H1,10,10*%
%TO.N,unconnected-(H1-Pad10)*%
X125330000Y-82740000D03*
%TO.P,H1,11,11*%
%TO.N,GPIO17*%
X127870000Y-85280000D03*
%TO.P,H1,12,12*%
%TO.N,unconnected-(H1-Pad12)*%
X125330000Y-85280000D03*
%TO.P,H1,13,13*%
%TO.N,GPIO27*%
X127870000Y-87820000D03*
%TO.P,H1,14,14*%
%TO.N,unconnected-(H1-Pad14)*%
X125330000Y-87820000D03*
%TO.P,H1,15,15*%
%TO.N,GPIO22*%
X127870000Y-90360000D03*
%TO.P,H1,16,16*%
%TO.N,GPIO23*%
X125330000Y-90360000D03*
%TO.P,H1,17,17*%
%TO.N,unconnected-(H1-Pad17)*%
X127870000Y-92900000D03*
%TO.P,H1,18,18*%
%TO.N,GPIO24*%
X125330000Y-92900000D03*
%TO.P,H1,19,19*%
%TO.N,unconnected-(H1-Pad19)*%
X127870000Y-95440000D03*
%TO.P,H1,20,20*%
%TO.N,unconnected-(H1-Pad20)*%
X125330000Y-95440000D03*
%TO.P,H1,21,21*%
%TO.N,unconnected-(H1-Pad21)*%
X127870000Y-97980000D03*
%TO.P,H1,22,22*%
%TO.N,GPIO25*%
X125330000Y-97980000D03*
%TO.P,H1,23,23*%
%TO.N,unconnected-(H1-Pad23)*%
X127870000Y-100520000D03*
%TO.P,H1,24,24*%
%TO.N,unconnected-(H1-Pad24)*%
X125330000Y-100520000D03*
%TO.P,H1,25,25*%
%TO.N,unconnected-(H1-Pad25)*%
X127870000Y-103060000D03*
%TO.P,H1,26,26*%
%TO.N,unconnected-(H1-Pad26)*%
X125330000Y-103060000D03*
%TO.P,H1,27,27*%
%TO.N,unconnected-(H1-Pad27)*%
X127870000Y-105600000D03*
%TO.P,H1,28,28*%
%TO.N,unconnected-(H1-Pad28)*%
X125330000Y-105600000D03*
%TO.P,H1,29,29*%
%TO.N,unconnected-(H1-Pad29)*%
X127870000Y-108140000D03*
%TO.P,H1,30,30*%
%TO.N,unconnected-(H1-Pad30)*%
X125330000Y-108140000D03*
%TO.P,H1,31,31*%
%TO.N,unconnected-(H1-Pad31)*%
X127870000Y-110680000D03*
%TO.P,H1,32,32*%
%TO.N,unconnected-(H1-Pad32)*%
X125330000Y-110680000D03*
%TO.P,H1,33,33*%
%TO.N,unconnected-(H1-Pad33)*%
X127870000Y-113220000D03*
%TO.P,H1,34,34*%
%TO.N,unconnected-(H1-Pad34)*%
X125330000Y-113220000D03*
%TO.P,H1,35,35*%
%TO.N,unconnected-(H1-Pad35)*%
X127870000Y-115760000D03*
%TO.P,H1,36,36*%
%TO.N,unconnected-(H1-Pad36)*%
X125330000Y-115760000D03*
%TO.P,H1,37,37*%
%TO.N,unconnected-(H1-Pad37)*%
X127870000Y-118300000D03*
%TO.P,H1,38,38*%
%TO.N,unconnected-(H1-Pad38)*%
X125330000Y-118300000D03*
%TO.P,H1,39,39*%
%TO.N,unconnected-(H1-Pad39)*%
X127870000Y-120840000D03*
%TO.P,H1,40,40*%
%TO.N,Net-(H1-Pad40)*%
X125330000Y-120840000D03*
%TD*%
D11*
%TO.P,CN5,1,Power*%
%TO.N,+12V*%
X142615000Y-111960000D03*
D13*
%TO.P,CN5,2,Output*%
%TO.N,GPIO27*%
X142615000Y-114500000D03*
%TO.P,CN5,3,Gnd*%
%TO.N,GND*%
X142615000Y-117040000D03*
%TD*%
D11*
%TO.P,CN6,1,Power*%
%TO.N,+12V*%
X141040000Y-123615000D03*
D13*
%TO.P,CN6,2,Output*%
%TO.N,GPIO22*%
X138500000Y-123615000D03*
%TO.P,CN6,3,Gnd*%
%TO.N,GND*%
X135960000Y-123615000D03*
%TD*%
D14*
%TO.P,D6,1,K*%
%TO.N,GPIO27*%
X136447818Y-111500000D03*
D15*
%TO.P,D6,2,A*%
%TO.N,GND*%
X138987818Y-111500000D03*
%TD*%
D16*
%TO.P,D1,1,K*%
%TO.N,GND*%
X132000000Y-115730000D03*
D17*
%TO.P,D1,2,A*%
%TO.N,Net-(D1-A)*%
X132000000Y-118270000D03*
%TD*%
D18*
%TO.P,U2,1,1*%
%TO.N,+12V*%
X141887500Y-67142500D03*
D19*
%TO.P,U2,2,2*%
%TO.N,GND*%
X138077500Y-67142500D03*
%TD*%
D20*
%TO.P,R15,1*%
%TO.N,Net-(H1-Pad40)*%
X132000000Y-123000000D03*
%TO.P,R15,2*%
%TO.N,Net-(D1-A)*%
X132000000Y-120460000D03*
%TD*%
D14*
%TO.P,D4,1,K*%
%TO.N,GPIO25*%
X136447818Y-92000000D03*
D15*
%TO.P,D4,2,A*%
%TO.N,GND*%
X138987818Y-92000000D03*
%TD*%
D11*
%TO.P,CN1,1,Power*%
%TO.N,+12V*%
X142615000Y-73920000D03*
D13*
%TO.P,CN1,2,Output*%
%TO.N,GPIO23*%
X142615000Y-76460000D03*
%TO.P,CN1,3,GND*%
%TO.N,GND*%
X142615000Y-79000000D03*
%TD*%
D20*
%TO.P,R3,1,1*%
%TO.N,+12V*%
X139000000Y-76500000D03*
%TO.P,R3,2,2*%
%TO.N,GPIO23*%
X136460000Y-76500000D03*
%TD*%
%TO.P,R8,1,1*%
%TO.N,+12V*%
X139000000Y-105000000D03*
%TO.P,R8,2,2*%
%TO.N,GPIO17*%
X136460000Y-105000000D03*
%TD*%
D11*
%TO.P,CN2,1,Power*%
%TO.N,+12V*%
X142615000Y-83460000D03*
D13*
%TO.P,CN2,2,Output*%
%TO.N,GPIO24*%
X142615000Y-86000000D03*
%TO.P,CN2,3,Gnd*%
%TO.N,GND*%
X142615000Y-88540000D03*
%TD*%
D21*
%TO.P,D7,1,K*%
%TO.N,GPIO22*%
X139000000Y-117447818D03*
D15*
%TO.P,D7,2,A*%
%TO.N,GND*%
X139000000Y-119987818D03*
%TD*%
D14*
%TO.P,D3,1,K*%
%TO.N,GPIO24*%
X136447818Y-82500000D03*
D15*
%TO.P,D3,2,A*%
%TO.N,GND*%
X138987818Y-82500000D03*
%TD*%
D14*
%TO.P,D5,1,K*%
%TO.N,GPIO17*%
X136460000Y-101000000D03*
D15*
%TO.P,D5,2,A*%
%TO.N,GND*%
X139000000Y-101000000D03*
%TD*%
D11*
%TO.P,CN4,1,Power*%
%TO.N,+12V*%
X142500000Y-102420000D03*
D13*
%TO.P,CN4,2,Output*%
%TO.N,GPIO17*%
X142500000Y-104960000D03*
%TO.P,CN4,3,Gnd*%
%TO.N,GND*%
X142500000Y-107500000D03*
%TD*%
D11*
%TO.P,CN3,1,Power*%
%TO.N,+12V*%
X142615000Y-92960000D03*
D13*
%TO.P,CN3,2,Output*%
%TO.N,GPIO25*%
X142615000Y-95500000D03*
%TO.P,CN3,3,Gnd*%
%TO.N,GND*%
X142615000Y-98040000D03*
%TD*%
D22*
%TO.P,D2,1,K*%
%TO.N,GPIO23*%
X139000000Y-73500000D03*
D15*
%TO.P,D2,2,A*%
%TO.N,GND*%
X136460000Y-73500000D03*
%TD*%
D20*
%TO.P,R6,1,1*%
%TO.N,+12V*%
X139000000Y-95500000D03*
%TO.P,R6,2,2*%
%TO.N,GPIO25*%
X136460000Y-95500000D03*
%TD*%
D23*
%TO.P,U1,1,VI*%
%TO.N,+12V*%
X132950000Y-77040000D03*
D24*
%TO.P,U1,2,GND*%
%TO.N,GND*%
X132950000Y-74500000D03*
%TO.P,U1,3,VO*%
%TO.N,+5V*%
X132950000Y-71960000D03*
%TD*%
D20*
%TO.P,R10,1,1*%
%TO.N,+12V*%
X139000000Y-114500000D03*
%TO.P,R10,2,2*%
%TO.N,GPIO27*%
X136460000Y-114500000D03*
%TD*%
%TO.P,R4,1,1*%
%TO.N,+12V*%
X139000000Y-86000000D03*
%TO.P,R4,2,2*%
%TO.N,GPIO24*%
X136460000Y-86000000D03*
%TD*%
%TO.P,R12,1,1*%
%TO.N,+12V*%
X136000000Y-117280000D03*
%TO.P,R12,2,2*%
%TO.N,GPIO22*%
X136000000Y-119820000D03*
%TD*%
D11*
%TO.P,J1_I2C1,1,1*%
%TO.N,GND*%
X132500000Y-83880000D03*
D13*
%TO.P,J1_I2C1,2,2*%
%TO.N,+3.3V*%
X132500000Y-86420000D03*
%TO.P,J1_I2C1,3,3*%
%TO.N,Net-(H1-Pad5)*%
X132500000Y-88960000D03*
%TO.P,J1_I2C1,4,4*%
%TO.N,Net-(H1-Pad3)*%
X132500000Y-91500000D03*
%TO.P,J1_I2C1,5,5*%
%TO.N,unconnected-(J1_I2C1-Pad5)*%
X132500000Y-94040000D03*
%TD*%
D25*
%TO.N,Net-(D1-A)*%
X132000000Y-120460000D02*
X132000000Y-118270000D01*
D10*
%TO.N,GPIO23*%
X128500000Y-71000000D02*
X125000000Y-71000000D01*
X136460000Y-76500000D02*
X134751000Y-74791000D01*
X129293500Y-70206500D02*
X128500000Y-71000000D01*
X136460000Y-76500000D02*
X138960000Y-74000000D01*
X124179000Y-71821000D02*
X124179000Y-89209000D01*
X134751000Y-74791000D02*
X134751000Y-70940783D01*
X138960000Y-74000000D02*
X139090000Y-74000000D01*
X134016717Y-70206500D02*
X129293500Y-70206500D01*
X124179000Y-89209000D02*
X125330000Y-90360000D01*
X134751000Y-70940783D02*
X134016717Y-70206500D01*
X125000000Y-71000000D02*
X124179000Y-71821000D01*
%TO.N,GPIO27*%
X129021000Y-104073182D02*
X129021000Y-88971000D01*
X137460000Y-113500000D02*
X136460000Y-114500000D01*
X129021000Y-88971000D02*
X127870000Y-87820000D01*
X136460000Y-114040000D02*
X136550000Y-113950000D01*
X136460000Y-114500000D02*
X136460000Y-114040000D01*
X136550000Y-111602182D02*
X129021000Y-104073182D01*
X142615000Y-114500000D02*
X141115000Y-113000000D01*
X141115000Y-113000000D02*
X139000000Y-113000000D01*
X136550000Y-113950000D02*
X136550000Y-111602182D01*
%TO.N,GPIO22*%
X126719000Y-108854760D02*
X127393240Y-109529000D01*
X134500000Y-118320000D02*
X136000000Y-119820000D01*
X136000000Y-119820000D02*
X136000000Y-121115000D01*
X138372182Y-117447818D02*
X136000000Y-119820000D01*
X128346760Y-109529000D02*
X134500000Y-115682240D01*
X127393240Y-109529000D02*
X128346760Y-109529000D01*
X134500000Y-115682240D02*
X134500000Y-118320000D01*
X139000000Y-117447818D02*
X138372182Y-117447818D01*
X127870000Y-90360000D02*
X126719000Y-91511000D01*
X126719000Y-91511000D02*
X126719000Y-108854760D01*
X136000000Y-121115000D02*
X138500000Y-123615000D01*
%TO.N,Net-(H1-Pad40)*%
X125330000Y-120840000D02*
X126490000Y-122000000D01*
X126490000Y-122000000D02*
X131000000Y-122000000D01*
X131000000Y-122000000D02*
X132000000Y-123000000D01*
%TO.N,GPIO24*%
X137960000Y-87500000D02*
X136460000Y-86000000D01*
X142615000Y-86000000D02*
X141115000Y-87500000D01*
X141115000Y-87500000D02*
X137960000Y-87500000D01*
D25*
%TO.N,+3.3V*%
X130000000Y-74710000D02*
X130000000Y-83920000D01*
X127870000Y-72580000D02*
X130000000Y-74710000D01*
X130000000Y-83920000D02*
X132500000Y-86420000D01*
D10*
%TO.N,Net-(H1-Pad5)*%
X127870000Y-77660000D02*
X129500000Y-79290000D01*
X129500000Y-85960000D02*
X132500000Y-88960000D01*
X129500000Y-79290000D02*
X129500000Y-85960000D01*
%TO.N,GPIO17*%
X137500000Y-107000000D02*
X140615000Y-107000000D01*
X130241000Y-87651000D02*
X130241000Y-94781000D01*
X136460000Y-105960000D02*
X137500000Y-107000000D01*
X136460000Y-101000000D02*
X136460000Y-105000000D01*
X127870000Y-85280000D02*
X130241000Y-87651000D01*
X130241000Y-94781000D02*
X136460000Y-101000000D01*
X140615000Y-107000000D02*
X142615000Y-105000000D01*
X136460000Y-105000000D02*
X136460000Y-105960000D01*
D25*
%TO.N,+5V*%
X125330000Y-72580000D02*
X125330000Y-75120000D01*
D10*
X133450000Y-71460000D02*
X133419000Y-71429000D01*
X126481000Y-71429000D02*
X132419000Y-71429000D01*
X132419000Y-71429000D02*
X132950000Y-71960000D01*
X125330000Y-72580000D02*
X126481000Y-71429000D01*
D25*
%TO.N,GPIO25*%
X140615000Y-97500000D02*
X142615000Y-95500000D01*
X136460000Y-96960000D02*
X137000000Y-97500000D01*
X136460000Y-95500000D02*
X136460000Y-96960000D01*
X137000000Y-97500000D02*
X140615000Y-97500000D01*
%TD*%
%TA.AperFunction,Conductor*%
%TO.N,+12V*%
G36*
X145943039Y-62520185D02*
G01*
X145988794Y-62572989D01*
X146000000Y-62624500D01*
X146000000Y-71500000D01*
X152377222Y-71500000D01*
X152444261Y-71519685D01*
X152490016Y-71572489D01*
X152501215Y-71622769D01*
X152857026Y-107559576D01*
X152998760Y-121874772D01*
X152979740Y-121942003D01*
X152927392Y-121988279D01*
X152874766Y-122000000D01*
X145500000Y-122000000D01*
X145500000Y-129376000D01*
X145480315Y-129443039D01*
X145427511Y-129488794D01*
X145376000Y-129500000D01*
X134126807Y-129500000D01*
X134059768Y-129480315D01*
X134014013Y-129427511D01*
X134002838Y-129373225D01*
X134101519Y-124965500D01*
X134230676Y-119196466D01*
X134251856Y-119129884D01*
X134305671Y-119085323D01*
X134375035Y-119076930D01*
X134437925Y-119107370D01*
X134442326Y-119111561D01*
X134789933Y-119459168D01*
X134823418Y-119520491D01*
X134824725Y-119566247D01*
X134799500Y-119725513D01*
X134799500Y-119914486D01*
X134829059Y-120101118D01*
X134887454Y-120280836D01*
X134929117Y-120362603D01*
X134973240Y-120449199D01*
X135084310Y-120602073D01*
X135217927Y-120735690D01*
X135348386Y-120830474D01*
X135351725Y-120834804D01*
X135356703Y-120837078D01*
X135372835Y-120862180D01*
X135391051Y-120885803D01*
X135392303Y-120892474D01*
X135394477Y-120895856D01*
X135399500Y-120930791D01*
X135399500Y-121028330D01*
X135399499Y-121028348D01*
X135399499Y-121194054D01*
X135399498Y-121194054D01*
X135399499Y-121194057D01*
X135440423Y-121346785D01*
X135446141Y-121356688D01*
X135446142Y-121356689D01*
X135446143Y-121356692D01*
X135519477Y-121483712D01*
X135519481Y-121483717D01*
X135638349Y-121602585D01*
X135638355Y-121602590D01*
X136088584Y-122052819D01*
X136122069Y-122114142D01*
X136117085Y-122183834D01*
X136075213Y-122239767D01*
X136009749Y-122264184D01*
X136000903Y-122264500D01*
X135853713Y-122264500D01*
X135805042Y-122272208D01*
X135643760Y-122297753D01*
X135441585Y-122363444D01*
X135252179Y-122459951D01*
X135080213Y-122584890D01*
X134929890Y-122735213D01*
X134804951Y-122907179D01*
X134708444Y-123096585D01*
X134642753Y-123298760D01*
X134641291Y-123307993D01*
X134609500Y-123508713D01*
X134609500Y-123721287D01*
X134642754Y-123931243D01*
X134692550Y-124084500D01*
X134708444Y-124133414D01*
X134804951Y-124322820D01*
X134929890Y-124494786D01*
X135080213Y-124645109D01*
X135252179Y-124770048D01*
X135252181Y-124770049D01*
X135252184Y-124770051D01*
X135441588Y-124866557D01*
X135643757Y-124932246D01*
X135853713Y-124965500D01*
X135853714Y-124965500D01*
X136066286Y-124965500D01*
X136066287Y-124965500D01*
X136276243Y-124932246D01*
X136478412Y-124866557D01*
X136667816Y-124770051D01*
X136754478Y-124707088D01*
X136839786Y-124645109D01*
X136839788Y-124645106D01*
X136839792Y-124645104D01*
X136990104Y-124494792D01*
X136990106Y-124494788D01*
X136990109Y-124494786D01*
X137115048Y-124322820D01*
X137115047Y-124322820D01*
X137115051Y-124322816D01*
X137119514Y-124314054D01*
X137167488Y-124263259D01*
X137235308Y-124246463D01*
X137301444Y-124268999D01*
X137340486Y-124314056D01*
X137344951Y-124322820D01*
X137469890Y-124494786D01*
X137620213Y-124645109D01*
X137792179Y-124770048D01*
X137792181Y-124770049D01*
X137792184Y-124770051D01*
X137981588Y-124866557D01*
X138183757Y-124932246D01*
X138393713Y-124965500D01*
X138393714Y-124965500D01*
X138606286Y-124965500D01*
X138606287Y-124965500D01*
X138816243Y-124932246D01*
X139018412Y-124866557D01*
X139207816Y-124770051D01*
X139294478Y-124707088D01*
X139379784Y-124645110D01*
X139379784Y-124645109D01*
X139379792Y-124645104D01*
X139493717Y-124531178D01*
X139555036Y-124497696D01*
X139624728Y-124502680D01*
X139680662Y-124544551D01*
X139697577Y-124575528D01*
X139746646Y-124707088D01*
X139746649Y-124707093D01*
X139832809Y-124822187D01*
X139832812Y-124822190D01*
X139947906Y-124908350D01*
X139947913Y-124908354D01*
X140082620Y-124958596D01*
X140082627Y-124958598D01*
X140142155Y-124964999D01*
X140142172Y-124965000D01*
X140790000Y-124965000D01*
X140790000Y-124048012D01*
X140847007Y-124080925D01*
X140974174Y-124115000D01*
X141105826Y-124115000D01*
X141232993Y-124080925D01*
X141290000Y-124048012D01*
X141290000Y-124965000D01*
X141937828Y-124965000D01*
X141937844Y-124964999D01*
X141997372Y-124958598D01*
X141997379Y-124958596D01*
X142132086Y-124908354D01*
X142132093Y-124908350D01*
X142247187Y-124822190D01*
X142247190Y-124822187D01*
X142333350Y-124707093D01*
X142333354Y-124707086D01*
X142383596Y-124572379D01*
X142383598Y-124572372D01*
X142389999Y-124512844D01*
X142390000Y-124512827D01*
X142390000Y-123865000D01*
X141473012Y-123865000D01*
X141505925Y-123807993D01*
X141540000Y-123680826D01*
X141540000Y-123549174D01*
X141505925Y-123422007D01*
X141473012Y-123365000D01*
X142390000Y-123365000D01*
X142390000Y-122717172D01*
X142389999Y-122717155D01*
X142383598Y-122657627D01*
X142383596Y-122657620D01*
X142333354Y-122522913D01*
X142333350Y-122522906D01*
X142247190Y-122407812D01*
X142247187Y-122407809D01*
X142132093Y-122321649D01*
X142132086Y-122321645D01*
X141997379Y-122271403D01*
X141997372Y-122271401D01*
X141937844Y-122265000D01*
X141290000Y-122265000D01*
X141290000Y-123181988D01*
X141232993Y-123149075D01*
X141105826Y-123115000D01*
X140974174Y-123115000D01*
X140847007Y-123149075D01*
X140790000Y-123181988D01*
X140790000Y-122265000D01*
X140142155Y-122265000D01*
X140082627Y-122271401D01*
X140082620Y-122271403D01*
X139947913Y-122321645D01*
X139947906Y-122321649D01*
X139832812Y-122407809D01*
X139832809Y-122407812D01*
X139746649Y-122522906D01*
X139746646Y-122522912D01*
X139697577Y-122654471D01*
X139655705Y-122710404D01*
X139590241Y-122734821D01*
X139521968Y-122719969D01*
X139493714Y-122698818D01*
X139379786Y-122584890D01*
X139207820Y-122459951D01*
X139018414Y-122363444D01*
X139018413Y-122363443D01*
X139018412Y-122363443D01*
X138816243Y-122297754D01*
X138816241Y-122297753D01*
X138816240Y-122297753D01*
X138654957Y-122272208D01*
X138606287Y-122264500D01*
X138393713Y-122264500D01*
X138365006Y-122269046D01*
X138183757Y-122297753D01*
X138141473Y-122311492D01*
X138071632Y-122313486D01*
X138015476Y-122281241D01*
X136703940Y-120969705D01*
X136670455Y-120908382D01*
X136675439Y-120838690D01*
X136717311Y-120782757D01*
X136718601Y-120781805D01*
X136782073Y-120735690D01*
X136915690Y-120602073D01*
X137026760Y-120449199D01*
X137112547Y-120280832D01*
X137163644Y-120123573D01*
X137203082Y-120065898D01*
X137267441Y-120038700D01*
X137336287Y-120050615D01*
X137387763Y-120097859D01*
X137404048Y-120142494D01*
X137438910Y-120362603D01*
X137516760Y-120602201D01*
X137631132Y-120826666D01*
X137779201Y-121030467D01*
X137779205Y-121030472D01*
X137957345Y-121208612D01*
X137957350Y-121208616D01*
X138135117Y-121337770D01*
X138161155Y-121356688D01*
X138304184Y-121429565D01*
X138385616Y-121471057D01*
X138385618Y-121471057D01*
X138385621Y-121471059D01*
X138625215Y-121548908D01*
X138874038Y-121588318D01*
X138874039Y-121588318D01*
X139125961Y-121588318D01*
X139125962Y-121588318D01*
X139374785Y-121548908D01*
X139614379Y-121471059D01*
X139838845Y-121356688D01*
X140042656Y-121208611D01*
X140220793Y-121030474D01*
X140368870Y-120826663D01*
X140483241Y-120602197D01*
X140561090Y-120362603D01*
X140600500Y-120113780D01*
X140600500Y-119861856D01*
X140561090Y-119613033D01*
X140483241Y-119373439D01*
X140483239Y-119373436D01*
X140483239Y-119373434D01*
X140368869Y-119148972D01*
X140355001Y-119129884D01*
X140301233Y-119055878D01*
X140277754Y-118990075D01*
X140293579Y-118922021D01*
X140313871Y-118895313D01*
X140318650Y-118890533D01*
X140318656Y-118890530D01*
X140442712Y-118766474D01*
X140534814Y-118617153D01*
X140589999Y-118450616D01*
X140600500Y-118347828D01*
X140600500Y-116547808D01*
X140589999Y-116445020D01*
X140534814Y-116278483D01*
X140442712Y-116129162D01*
X140318656Y-116005106D01*
X140169335Y-115913004D01*
X140002798Y-115857819D01*
X140002796Y-115857818D01*
X139900017Y-115847318D01*
X139900010Y-115847318D01*
X139515465Y-115847318D01*
X139448426Y-115827633D01*
X139402671Y-115774829D01*
X139392727Y-115705671D01*
X139421752Y-115642115D01*
X139459170Y-115612833D01*
X139628937Y-115526331D01*
X139654328Y-115507883D01*
X139654328Y-115507882D01*
X139000001Y-114853554D01*
X139000000Y-114853554D01*
X138345669Y-115507882D01*
X138345670Y-115507883D01*
X138371059Y-115526329D01*
X138540830Y-115612833D01*
X138591626Y-115660808D01*
X138608421Y-115728629D01*
X138585883Y-115794764D01*
X138531168Y-115838215D01*
X138484535Y-115847318D01*
X138099982Y-115847318D01*
X137997203Y-115857818D01*
X137997202Y-115857819D01*
X137928804Y-115880484D01*
X137830667Y-115913003D01*
X137830662Y-115913005D01*
X137681342Y-116005107D01*
X137557289Y-116129160D01*
X137465187Y-116278480D01*
X137465185Y-116278485D01*
X137447393Y-116332179D01*
X137410001Y-116445020D01*
X137410001Y-116445021D01*
X137410000Y-116445021D01*
X137399500Y-116547800D01*
X137399500Y-116921029D01*
X137379815Y-116988068D01*
X137327011Y-117033823D01*
X137257853Y-117043767D01*
X137194297Y-117014742D01*
X137157569Y-116959347D01*
X137112085Y-116819362D01*
X137026329Y-116651059D01*
X137007883Y-116625670D01*
X137007882Y-116625669D01*
X136350000Y-117283551D01*
X136350000Y-117233922D01*
X136326148Y-117144905D01*
X136280070Y-117065095D01*
X136214905Y-116999930D01*
X136135095Y-116953852D01*
X136046078Y-116930000D01*
X135996444Y-116930000D01*
X136654328Y-116272116D01*
X136628933Y-116253666D01*
X136460637Y-116167914D01*
X136281002Y-116109548D01*
X136094447Y-116080000D01*
X135905553Y-116080000D01*
X135718997Y-116109548D01*
X135539362Y-116167914D01*
X135371059Y-116253670D01*
X135297385Y-116307197D01*
X135231578Y-116330677D01*
X135163525Y-116314851D01*
X135114830Y-116264745D01*
X135100500Y-116206879D01*
X135100500Y-115603185D01*
X135100500Y-115603183D01*
X135059577Y-115450456D01*
X135039503Y-115415687D01*
X134980524Y-115313530D01*
X134980521Y-115313526D01*
X134980520Y-115313524D01*
X134868716Y-115201720D01*
X134868715Y-115201719D01*
X134864385Y-115197389D01*
X134864374Y-115197379D01*
X134369597Y-114702602D01*
X134336112Y-114641279D01*
X134333309Y-114612155D01*
X134422672Y-110620644D01*
X134428975Y-110600828D01*
X134430459Y-110580086D01*
X134439353Y-110568205D01*
X134443852Y-110554062D01*
X134459870Y-110540798D01*
X134472331Y-110524153D01*
X134486235Y-110518966D01*
X134497667Y-110509501D01*
X134518311Y-110507003D01*
X134537795Y-110499736D01*
X134552297Y-110502890D01*
X134567031Y-110501108D01*
X134585748Y-110510167D01*
X134606068Y-110514588D01*
X134626533Y-110529908D01*
X134629921Y-110531548D01*
X134634322Y-110535739D01*
X134810999Y-110712416D01*
X134844484Y-110773739D01*
X134847318Y-110800097D01*
X134847318Y-112400017D01*
X134857818Y-112502796D01*
X134857819Y-112502798D01*
X134913004Y-112669335D01*
X135005106Y-112818656D01*
X135129162Y-112942712D01*
X135278483Y-113034814D01*
X135445020Y-113089999D01*
X135547808Y-113100500D01*
X135825500Y-113100500D01*
X135834185Y-113103050D01*
X135843147Y-113101762D01*
X135867187Y-113112740D01*
X135892539Y-113120185D01*
X135898466Y-113127025D01*
X135906703Y-113130787D01*
X135920992Y-113153021D01*
X135938294Y-113172989D01*
X135940581Y-113183503D01*
X135944477Y-113189565D01*
X135949500Y-113224500D01*
X135949500Y-113336772D01*
X135929815Y-113403811D01*
X135881795Y-113447256D01*
X135830805Y-113473236D01*
X135728885Y-113547286D01*
X135677927Y-113584310D01*
X135677925Y-113584312D01*
X135677924Y-113584312D01*
X135544312Y-113717924D01*
X135544312Y-113717925D01*
X135544310Y-113717927D01*
X135534392Y-113731578D01*
X135433240Y-113870800D01*
X135347454Y-114039163D01*
X135289059Y-114218881D01*
X135259500Y-114405513D01*
X135259500Y-114594486D01*
X135289059Y-114781118D01*
X135347454Y-114960836D01*
X135376791Y-115018412D01*
X135433240Y-115129199D01*
X135544310Y-115282073D01*
X135677927Y-115415690D01*
X135830801Y-115526760D01*
X135910347Y-115567290D01*
X135999163Y-115612545D01*
X135999165Y-115612545D01*
X135999168Y-115612547D01*
X136090168Y-115642115D01*
X136178881Y-115670940D01*
X136365514Y-115700500D01*
X136365519Y-115700500D01*
X136554486Y-115700500D01*
X136741118Y-115670940D01*
X136776283Y-115659514D01*
X136920832Y-115612547D01*
X137089199Y-115526760D01*
X137242073Y-115415690D01*
X137375690Y-115282073D01*
X137486760Y-115129199D01*
X137572547Y-114960832D01*
X137612332Y-114838385D01*
X137651768Y-114780713D01*
X137716127Y-114753514D01*
X137784973Y-114765429D01*
X137836449Y-114812673D01*
X137848193Y-114838388D01*
X137887914Y-114960637D01*
X137973666Y-115128933D01*
X137992116Y-115154328D01*
X138650000Y-114496444D01*
X138650000Y-114546078D01*
X138673852Y-114635095D01*
X138719930Y-114714905D01*
X138785095Y-114780070D01*
X138864905Y-114826148D01*
X138953922Y-114850000D01*
X139046078Y-114850000D01*
X139135095Y-114826148D01*
X139214905Y-114780070D01*
X139280070Y-114714905D01*
X139326148Y-114635095D01*
X139350000Y-114546078D01*
X139350000Y-114496446D01*
X140007882Y-115154328D01*
X140007883Y-115154328D01*
X140026331Y-115128937D01*
X140112085Y-114960637D01*
X140170451Y-114781002D01*
X140200000Y-114594447D01*
X140200000Y-114405552D01*
X140170451Y-114218997D01*
X140112085Y-114039362D01*
X140026329Y-113871059D01*
X139972803Y-113797385D01*
X139949323Y-113731578D01*
X139965149Y-113663525D01*
X140015255Y-113614830D01*
X140073121Y-113600500D01*
X140814903Y-113600500D01*
X140881942Y-113620185D01*
X140902584Y-113636819D01*
X141281241Y-114015476D01*
X141314726Y-114076799D01*
X141311492Y-114141473D01*
X141297753Y-114183757D01*
X141269063Y-114364905D01*
X141264500Y-114393713D01*
X141264500Y-114606287D01*
X141269063Y-114635095D01*
X141297188Y-114812673D01*
X141297754Y-114816243D01*
X141344735Y-114960836D01*
X141363444Y-115018414D01*
X141459951Y-115207820D01*
X141584890Y-115379786D01*
X141735213Y-115530109D01*
X141907182Y-115655050D01*
X141915946Y-115659516D01*
X141966742Y-115707491D01*
X141983536Y-115775312D01*
X141960998Y-115841447D01*
X141915946Y-115880484D01*
X141907182Y-115884949D01*
X141735213Y-116009890D01*
X141584890Y-116160213D01*
X141459951Y-116332179D01*
X141363444Y-116521585D01*
X141297753Y-116723760D01*
X141266509Y-116921029D01*
X141264500Y-116933713D01*
X141264500Y-117146287D01*
X141297754Y-117356243D01*
X141342808Y-117494905D01*
X141363444Y-117558414D01*
X141459951Y-117747820D01*
X141584890Y-117919786D01*
X141735213Y-118070109D01*
X141907179Y-118195048D01*
X141907181Y-118195049D01*
X141907184Y-118195051D01*
X142096588Y-118291557D01*
X142298757Y-118357246D01*
X142508713Y-118390500D01*
X142508714Y-118390500D01*
X142721286Y-118390500D01*
X142721287Y-118390500D01*
X142931243Y-118357246D01*
X143133412Y-118291557D01*
X143322816Y-118195051D01*
X143344789Y-118179086D01*
X143494786Y-118070109D01*
X143494788Y-118070106D01*
X143494792Y-118070104D01*
X143645104Y-117919792D01*
X143645106Y-117919788D01*
X143645109Y-117919786D01*
X143770048Y-117747820D01*
X143770047Y-117747820D01*
X143770051Y-117747816D01*
X143866557Y-117558412D01*
X143932246Y-117356243D01*
X143965500Y-117146287D01*
X143965500Y-116933713D01*
X143932246Y-116723757D01*
X143866557Y-116521588D01*
X143770051Y-116332184D01*
X143770049Y-116332181D01*
X143770048Y-116332179D01*
X143645109Y-116160213D01*
X143494786Y-116009890D01*
X143322820Y-115884951D01*
X143322115Y-115884591D01*
X143314054Y-115880485D01*
X143263259Y-115832512D01*
X143246463Y-115764692D01*
X143268999Y-115698556D01*
X143314054Y-115659515D01*
X143322816Y-115655051D01*
X143394207Y-115603183D01*
X143494786Y-115530109D01*
X143494788Y-115530106D01*
X143494792Y-115530104D01*
X143645104Y-115379792D01*
X143645106Y-115379788D01*
X143645109Y-115379786D01*
X143770048Y-115207820D01*
X143770047Y-115207820D01*
X143770051Y-115207816D01*
X143866557Y-115018412D01*
X143932246Y-114816243D01*
X143965500Y-114606287D01*
X143965500Y-114393713D01*
X143932246Y-114183757D01*
X143866557Y-113981588D01*
X143770051Y-113792184D01*
X143770049Y-113792181D01*
X143770048Y-113792179D01*
X143645109Y-113620213D01*
X143531181Y-113506285D01*
X143497696Y-113444962D01*
X143502680Y-113375270D01*
X143544552Y-113319337D01*
X143575529Y-113302422D01*
X143707086Y-113253354D01*
X143707093Y-113253350D01*
X143822187Y-113167190D01*
X143822190Y-113167187D01*
X143908350Y-113052093D01*
X143908354Y-113052086D01*
X143958596Y-112917379D01*
X143958598Y-112917372D01*
X143964999Y-112857844D01*
X143965000Y-112857827D01*
X143965000Y-112210000D01*
X143048012Y-112210000D01*
X143080925Y-112152993D01*
X143115000Y-112025826D01*
X143115000Y-111894174D01*
X143080925Y-111767007D01*
X143048012Y-111710000D01*
X143965000Y-111710000D01*
X143965000Y-111062172D01*
X143964999Y-111062155D01*
X143958598Y-111002627D01*
X143958596Y-111002620D01*
X143908354Y-110867913D01*
X143908350Y-110867906D01*
X143822190Y-110752812D01*
X143822187Y-110752809D01*
X143707093Y-110666649D01*
X143707086Y-110666645D01*
X143572379Y-110616403D01*
X143572372Y-110616401D01*
X143512844Y-110610000D01*
X142865000Y-110610000D01*
X142865000Y-111526988D01*
X142807993Y-111494075D01*
X142680826Y-111460000D01*
X142549174Y-111460000D01*
X142422007Y-111494075D01*
X142365000Y-111526988D01*
X142365000Y-110610000D01*
X141717155Y-110610000D01*
X141657627Y-110616401D01*
X141657620Y-110616403D01*
X141522913Y-110666645D01*
X141522906Y-110666649D01*
X141407812Y-110752809D01*
X141407809Y-110752812D01*
X141321649Y-110867906D01*
X141321645Y-110867913D01*
X141271403Y-111002620D01*
X141271401Y-111002627D01*
X141265000Y-111062155D01*
X141265000Y-111710000D01*
X142181988Y-111710000D01*
X142149075Y-111767007D01*
X142115000Y-111894174D01*
X142115000Y-112025826D01*
X142149075Y-112152993D01*
X142181988Y-112210000D01*
X141265000Y-112210000D01*
X141265000Y-112275499D01*
X141262449Y-112284184D01*
X141263738Y-112293145D01*
X141252759Y-112317186D01*
X141245315Y-112342538D01*
X141238475Y-112348464D01*
X141234714Y-112356701D01*
X141212478Y-112370991D01*
X141192511Y-112388293D01*
X141181998Y-112390580D01*
X141175936Y-112394476D01*
X141141002Y-112399498D01*
X141141001Y-112399499D01*
X141035943Y-112399499D01*
X141035939Y-112399499D01*
X141028332Y-112399500D01*
X141028331Y-112399499D01*
X141028331Y-112399500D01*
X140528133Y-112399500D01*
X140461094Y-112379815D01*
X140415339Y-112327011D01*
X140405395Y-112257853D01*
X140417648Y-112219205D01*
X140451384Y-112152993D01*
X140471059Y-112114379D01*
X140548908Y-111874785D01*
X140588318Y-111625962D01*
X140588318Y-111374038D01*
X140548908Y-111125215D01*
X140548907Y-111125211D01*
X140548907Y-111125210D01*
X140539796Y-111097169D01*
X140471057Y-110885616D01*
X140414052Y-110773739D01*
X140356688Y-110661155D01*
X140269244Y-110540798D01*
X140208616Y-110457350D01*
X140208612Y-110457345D01*
X140030472Y-110279205D01*
X140030467Y-110279201D01*
X139826666Y-110131132D01*
X139826665Y-110131131D01*
X139826663Y-110131130D01*
X139756565Y-110095413D01*
X139602201Y-110016760D01*
X139362603Y-109938910D01*
X139113780Y-109899500D01*
X138861856Y-109899500D01*
X138795556Y-109910001D01*
X138613032Y-109938910D01*
X138373434Y-110016760D01*
X138148976Y-110131128D01*
X138148973Y-110131129D01*
X138148973Y-110131130D01*
X138055878Y-110198766D01*
X137990073Y-110222245D01*
X137922019Y-110206419D01*
X137895314Y-110186128D01*
X137766475Y-110057289D01*
X137766474Y-110057288D01*
X137617153Y-109965186D01*
X137450616Y-109910001D01*
X137450614Y-109910000D01*
X137347835Y-109899500D01*
X137347828Y-109899500D01*
X135747915Y-109899500D01*
X135680876Y-109879815D01*
X135660234Y-109863181D01*
X134503832Y-108706779D01*
X134470347Y-108645456D01*
X134467544Y-108616331D01*
X134616698Y-101954122D01*
X134637877Y-101887546D01*
X134691692Y-101842984D01*
X134761056Y-101834591D01*
X134823946Y-101865031D01*
X134860395Y-101924640D01*
X134864024Y-101944299D01*
X134870000Y-102002796D01*
X134906516Y-102112993D01*
X134925186Y-102169335D01*
X135017288Y-102318656D01*
X135141344Y-102442712D01*
X135290665Y-102534814D01*
X135457202Y-102589999D01*
X135559990Y-102600500D01*
X135735500Y-102600500D01*
X135802539Y-102620185D01*
X135848294Y-102672989D01*
X135859500Y-102724500D01*
X135859500Y-103889207D01*
X135839815Y-103956246D01*
X135808386Y-103989525D01*
X135677925Y-104084311D01*
X135544312Y-104217924D01*
X135544312Y-104217925D01*
X135544310Y-104217927D01*
X135519421Y-104252184D01*
X135433240Y-104370800D01*
X135347454Y-104539163D01*
X135289059Y-104718881D01*
X135259500Y-104905513D01*
X135259500Y-105094486D01*
X135289059Y-105281118D01*
X135347454Y-105460836D01*
X135433104Y-105628933D01*
X135433240Y-105629199D01*
X135544310Y-105782073D01*
X135677927Y-105915690D01*
X135765796Y-105979531D01*
X135826820Y-106023868D01*
X135838054Y-106038437D01*
X135852835Y-106049389D01*
X135863806Y-106071835D01*
X135869485Y-106079199D01*
X135869902Y-106080282D01*
X135872102Y-106086095D01*
X135900423Y-106191785D01*
X135929360Y-106241904D01*
X135934382Y-106250604D01*
X135934384Y-106250607D01*
X135979479Y-106328714D01*
X135979481Y-106328717D01*
X136098349Y-106447585D01*
X136098355Y-106447590D01*
X137015139Y-107364374D01*
X137015149Y-107364385D01*
X137019479Y-107368715D01*
X137019480Y-107368716D01*
X137131284Y-107480520D01*
X137218095Y-107530639D01*
X137218097Y-107530641D01*
X137256151Y-107552611D01*
X137268215Y-107559577D01*
X137420943Y-107600500D01*
X137579057Y-107600500D01*
X140528331Y-107600500D01*
X140528347Y-107600501D01*
X140535943Y-107600501D01*
X140694054Y-107600501D01*
X140694057Y-107600501D01*
X140846785Y-107559577D01*
X140896904Y-107530639D01*
X140963503Y-107492189D01*
X141031401Y-107475717D01*
X141097427Y-107498570D01*
X141140618Y-107553491D01*
X141149500Y-107599577D01*
X141149500Y-107606286D01*
X141182753Y-107816239D01*
X141248444Y-108018414D01*
X141344951Y-108207820D01*
X141469890Y-108379786D01*
X141620213Y-108530109D01*
X141792179Y-108655048D01*
X141792181Y-108655049D01*
X141792184Y-108655051D01*
X141981588Y-108751557D01*
X142183757Y-108817246D01*
X142393713Y-108850500D01*
X142393714Y-108850500D01*
X142606286Y-108850500D01*
X142606287Y-108850500D01*
X142816243Y-108817246D01*
X143018412Y-108751557D01*
X143207816Y-108655051D01*
X143261110Y-108616331D01*
X143379786Y-108530109D01*
X143379788Y-108530106D01*
X143379792Y-108530104D01*
X143530104Y-108379792D01*
X143530106Y-108379788D01*
X143530109Y-108379786D01*
X143655048Y-108207820D01*
X143655047Y-108207820D01*
X143655051Y-108207816D01*
X143751557Y-108018412D01*
X143817246Y-107816243D01*
X143850500Y-107606287D01*
X143850500Y-107393713D01*
X143817246Y-107183757D01*
X143751557Y-106981588D01*
X143655051Y-106792184D01*
X143655049Y-106792181D01*
X143655048Y-106792179D01*
X143530109Y-106620213D01*
X143379786Y-106469890D01*
X143207820Y-106344951D01*
X143207115Y-106344591D01*
X143199054Y-106340485D01*
X143148259Y-106292512D01*
X143131463Y-106224692D01*
X143153999Y-106158556D01*
X143199054Y-106119515D01*
X143207816Y-106115051D01*
X143255672Y-106080282D01*
X143379786Y-105990109D01*
X143379788Y-105990106D01*
X143379792Y-105990104D01*
X143530104Y-105839792D01*
X143530106Y-105839788D01*
X143530109Y-105839786D01*
X143655048Y-105667820D01*
X143655047Y-105667820D01*
X143655051Y-105667816D01*
X143751557Y-105478412D01*
X143817246Y-105276243D01*
X143850500Y-105066287D01*
X143850500Y-104853713D01*
X143817246Y-104643757D01*
X143751557Y-104441588D01*
X143655051Y-104252184D01*
X143655049Y-104252181D01*
X143655048Y-104252179D01*
X143530109Y-104080213D01*
X143416181Y-103966285D01*
X143382696Y-103904962D01*
X143387680Y-103835270D01*
X143429552Y-103779337D01*
X143460529Y-103762422D01*
X143592086Y-103713354D01*
X143592093Y-103713350D01*
X143707187Y-103627190D01*
X143707190Y-103627187D01*
X143793350Y-103512093D01*
X143793354Y-103512086D01*
X143843596Y-103377379D01*
X143843598Y-103377372D01*
X143849999Y-103317844D01*
X143850000Y-103317827D01*
X143850000Y-102670000D01*
X142933012Y-102670000D01*
X142965925Y-102612993D01*
X143000000Y-102485826D01*
X143000000Y-102354174D01*
X142965925Y-102227007D01*
X142933012Y-102170000D01*
X143850000Y-102170000D01*
X143850000Y-101522172D01*
X143849999Y-101522155D01*
X143843598Y-101462627D01*
X143843596Y-101462620D01*
X143793354Y-101327913D01*
X143793350Y-101327906D01*
X143707190Y-101212812D01*
X143707187Y-101212809D01*
X143592093Y-101126649D01*
X143592086Y-101126645D01*
X143457379Y-101076403D01*
X143457372Y-101076401D01*
X143397844Y-101070000D01*
X142750000Y-101070000D01*
X142750000Y-101986988D01*
X142692993Y-101954075D01*
X142565826Y-101920000D01*
X142434174Y-101920000D01*
X142307007Y-101954075D01*
X142250000Y-101986988D01*
X142250000Y-101070000D01*
X141602155Y-101070000D01*
X141542627Y-101076401D01*
X141542620Y-101076403D01*
X141407913Y-101126645D01*
X141407906Y-101126649D01*
X141292812Y-101212809D01*
X141292809Y-101212812D01*
X141206649Y-101327906D01*
X141206645Y-101327913D01*
X141156403Y-101462620D01*
X141156401Y-101462627D01*
X141150000Y-101522155D01*
X141150000Y-102170000D01*
X142066988Y-102170000D01*
X142034075Y-102227007D01*
X142000000Y-102354174D01*
X142000000Y-102485826D01*
X142034075Y-102612993D01*
X142066988Y-102670000D01*
X141150000Y-102670000D01*
X141150000Y-103317844D01*
X141156401Y-103377372D01*
X141156403Y-103377379D01*
X141206645Y-103512086D01*
X141206649Y-103512093D01*
X141292809Y-103627187D01*
X141292812Y-103627190D01*
X141407906Y-103713350D01*
X141407913Y-103713354D01*
X141539470Y-103762422D01*
X141595404Y-103804293D01*
X141619821Y-103869758D01*
X141604969Y-103938031D01*
X141583819Y-103966285D01*
X141469889Y-104080215D01*
X141344951Y-104252179D01*
X141248444Y-104441585D01*
X141182753Y-104643760D01*
X141149500Y-104853713D01*
X141149500Y-105066286D01*
X141182753Y-105276240D01*
X141234503Y-105435511D01*
X141236498Y-105505353D01*
X141204253Y-105561510D01*
X140402584Y-106363181D01*
X140341261Y-106396666D01*
X140314903Y-106399500D01*
X139358970Y-106399500D01*
X139291931Y-106379815D01*
X139246176Y-106327011D01*
X139236232Y-106257853D01*
X139265257Y-106194297D01*
X139320652Y-106157569D01*
X139460637Y-106112085D01*
X139628937Y-106026331D01*
X139654328Y-106007883D01*
X139654328Y-106007882D01*
X139000001Y-105353554D01*
X139000000Y-105353554D01*
X138345669Y-106007882D01*
X138345670Y-106007883D01*
X138371059Y-106026329D01*
X138539362Y-106112085D01*
X138679348Y-106157569D01*
X138737023Y-106197006D01*
X138764222Y-106261365D01*
X138752308Y-106330211D01*
X138705064Y-106381687D01*
X138641030Y-106399500D01*
X137800097Y-106399500D01*
X137733058Y-106379815D01*
X137712416Y-106363181D01*
X137341180Y-105991945D01*
X137307695Y-105930622D01*
X137312679Y-105860930D01*
X137341180Y-105816583D01*
X137375690Y-105782073D01*
X137486760Y-105629199D01*
X137572547Y-105460832D01*
X137612332Y-105338385D01*
X137651768Y-105280713D01*
X137716127Y-105253514D01*
X137784973Y-105265429D01*
X137836449Y-105312673D01*
X137848193Y-105338388D01*
X137887914Y-105460637D01*
X137973666Y-105628933D01*
X137992116Y-105654328D01*
X138646446Y-105000000D01*
X138646446Y-104999999D01*
X138600369Y-104953922D01*
X138650000Y-104953922D01*
X138650000Y-105046078D01*
X138673852Y-105135095D01*
X138719930Y-105214905D01*
X138785095Y-105280070D01*
X138864905Y-105326148D01*
X138953922Y-105350000D01*
X139046078Y-105350000D01*
X139135095Y-105326148D01*
X139214905Y-105280070D01*
X139280070Y-105214905D01*
X139326148Y-105135095D01*
X139350000Y-105046078D01*
X139350000Y-104999999D01*
X139353554Y-104999999D01*
X139353554Y-105000000D01*
X140007882Y-105654328D01*
X140007883Y-105654328D01*
X140026331Y-105628937D01*
X140112085Y-105460637D01*
X140170451Y-105281002D01*
X140200000Y-105094447D01*
X140200000Y-104905552D01*
X140170451Y-104718997D01*
X140112085Y-104539362D01*
X140026329Y-104371059D01*
X140007883Y-104345670D01*
X140007882Y-104345669D01*
X139353554Y-104999999D01*
X139350000Y-104999999D01*
X139350000Y-104953922D01*
X139326148Y-104864905D01*
X139280070Y-104785095D01*
X139214905Y-104719930D01*
X139135095Y-104673852D01*
X139046078Y-104650000D01*
X138953922Y-104650000D01*
X138864905Y-104673852D01*
X138785095Y-104719930D01*
X138719930Y-104785095D01*
X138673852Y-104864905D01*
X138650000Y-104953922D01*
X138600369Y-104953922D01*
X137992116Y-104345669D01*
X137992116Y-104345670D01*
X137973669Y-104371060D01*
X137887915Y-104539361D01*
X137848193Y-104661612D01*
X137808755Y-104719287D01*
X137744396Y-104746485D01*
X137675550Y-104734570D01*
X137624074Y-104687326D01*
X137612332Y-104661614D01*
X137572547Y-104539168D01*
X137486760Y-104370801D01*
X137375690Y-104217927D01*
X137242073Y-104084310D01*
X137115179Y-103992116D01*
X138345669Y-103992116D01*
X139000000Y-104646446D01*
X139000001Y-104646446D01*
X139654328Y-103992116D01*
X139628933Y-103973666D01*
X139460637Y-103887914D01*
X139281002Y-103829548D01*
X139094447Y-103800000D01*
X138905553Y-103800000D01*
X138718997Y-103829548D01*
X138539362Y-103887914D01*
X138371060Y-103973669D01*
X138345670Y-103992116D01*
X138345669Y-103992116D01*
X137115179Y-103992116D01*
X137109338Y-103987872D01*
X137107111Y-103986093D01*
X137088623Y-103959710D01*
X137068948Y-103934194D01*
X137068290Y-103930693D01*
X137067015Y-103928873D01*
X137066762Y-103922553D01*
X137060500Y-103889207D01*
X137060500Y-102724500D01*
X137080185Y-102657461D01*
X137132989Y-102611706D01*
X137184500Y-102600500D01*
X137360005Y-102600500D01*
X137360010Y-102600500D01*
X137462798Y-102589999D01*
X137629335Y-102534814D01*
X137778656Y-102442712D01*
X137902712Y-102318656D01*
X137902715Y-102318650D01*
X137907495Y-102313871D01*
X137968818Y-102280386D01*
X138038510Y-102285370D01*
X138068058Y-102301231D01*
X138161155Y-102368870D01*
X138267206Y-102422905D01*
X138385616Y-102483239D01*
X138385618Y-102483239D01*
X138385621Y-102483241D01*
X138625215Y-102561090D01*
X138874038Y-102600500D01*
X138874039Y-102600500D01*
X139125961Y-102600500D01*
X139125962Y-102600500D01*
X139374785Y-102561090D01*
X139614379Y-102483241D01*
X139838845Y-102368870D01*
X140042656Y-102220793D01*
X140220793Y-102042656D01*
X140368870Y-101838845D01*
X140483241Y-101614379D01*
X140513201Y-101522172D01*
X140526731Y-101480532D01*
X140526731Y-101480531D01*
X140561089Y-101374789D01*
X140561089Y-101374788D01*
X140561090Y-101374785D01*
X140600500Y-101125962D01*
X140600500Y-100874038D01*
X140561090Y-100625215D01*
X140483241Y-100385621D01*
X140483239Y-100385618D01*
X140483239Y-100385616D01*
X140413494Y-100248735D01*
X140368870Y-100161155D01*
X140349952Y-100135117D01*
X140220798Y-99957350D01*
X140220794Y-99957345D01*
X140042654Y-99779205D01*
X140042649Y-99779201D01*
X139838848Y-99631132D01*
X139838847Y-99631131D01*
X139838845Y-99631130D01*
X139768747Y-99595413D01*
X139614383Y-99516760D01*
X139374785Y-99438910D01*
X139125962Y-99399500D01*
X138874038Y-99399500D01*
X138807738Y-99410001D01*
X138625214Y-99438910D01*
X138385616Y-99516760D01*
X138161158Y-99631128D01*
X138161155Y-99631129D01*
X138161155Y-99631130D01*
X138068060Y-99698766D01*
X138002255Y-99722245D01*
X137934201Y-99706419D01*
X137907496Y-99686128D01*
X137778657Y-99557289D01*
X137778656Y-99557288D01*
X137629335Y-99465186D01*
X137462798Y-99410001D01*
X137462796Y-99410000D01*
X137360017Y-99399500D01*
X137360010Y-99399500D01*
X135760097Y-99399500D01*
X135693058Y-99379815D01*
X135672416Y-99363181D01*
X134734026Y-98424791D01*
X134700541Y-98363468D01*
X134697738Y-98334341D01*
X134763309Y-95405513D01*
X135259500Y-95405513D01*
X135259500Y-95594486D01*
X135289059Y-95781118D01*
X135347454Y-95960836D01*
X135376791Y-96018412D01*
X135433240Y-96129199D01*
X135544310Y-96282073D01*
X135677927Y-96415690D01*
X135677928Y-96415691D01*
X135677927Y-96415691D01*
X135698442Y-96430595D01*
X135708383Y-96437818D01*
X135751050Y-96493147D01*
X135759500Y-96538137D01*
X135759500Y-96891006D01*
X135759500Y-97028994D01*
X135759500Y-97028996D01*
X135759499Y-97028996D01*
X135786418Y-97164322D01*
X135786421Y-97164332D01*
X135839222Y-97291807D01*
X135915887Y-97406545D01*
X135915888Y-97406546D01*
X136455886Y-97946542D01*
X136525906Y-98016562D01*
X136553459Y-98044115D01*
X136668182Y-98120771D01*
X136668189Y-98120775D01*
X136729781Y-98146287D01*
X136795671Y-98173580D01*
X136822591Y-98178934D01*
X136918730Y-98198058D01*
X136931006Y-98200500D01*
X136931007Y-98200500D01*
X140683996Y-98200500D01*
X140792412Y-98178934D01*
X140819328Y-98173580D01*
X140901057Y-98139727D01*
X140946807Y-98120777D01*
X140946808Y-98120776D01*
X140946811Y-98120775D01*
X141061543Y-98044114D01*
X141061554Y-98044102D01*
X141061826Y-98043881D01*
X141062006Y-98043804D01*
X141066609Y-98040729D01*
X141067191Y-98041601D01*
X141126134Y-98016562D01*
X141195002Y-98028347D01*
X141246567Y-98075494D01*
X141264500Y-98139727D01*
X141264500Y-98146285D01*
X141297753Y-98356239D01*
X141363444Y-98558414D01*
X141459951Y-98747820D01*
X141584890Y-98919786D01*
X141735213Y-99070109D01*
X141907179Y-99195048D01*
X141907181Y-99195049D01*
X141907184Y-99195051D01*
X142096588Y-99291557D01*
X142298757Y-99357246D01*
X142508713Y-99390500D01*
X142508714Y-99390500D01*
X142721286Y-99390500D01*
X142721287Y-99390500D01*
X142931243Y-99357246D01*
X143133412Y-99291557D01*
X143322816Y-99195051D01*
X143344789Y-99179086D01*
X143494786Y-99070109D01*
X143494788Y-99070106D01*
X143494792Y-99070104D01*
X143645104Y-98919792D01*
X143645106Y-98919788D01*
X143645109Y-98919786D01*
X143770048Y-98747820D01*
X143770047Y-98747820D01*
X143770051Y-98747816D01*
X143866557Y-98558412D01*
X143932246Y-98356243D01*
X143965500Y-98146287D01*
X143965500Y-97933713D01*
X143932246Y-97723757D01*
X143866557Y-97521588D01*
X143770051Y-97332184D01*
X143770049Y-97332181D01*
X143770048Y-97332179D01*
X143645109Y-97160213D01*
X143494786Y-97009890D01*
X143322820Y-96884951D01*
X143322115Y-96884591D01*
X143314054Y-96880485D01*
X143263259Y-96832512D01*
X143246463Y-96764692D01*
X143268999Y-96698556D01*
X143314054Y-96659515D01*
X143322816Y-96655051D01*
X143373152Y-96618480D01*
X143494786Y-96530109D01*
X143494788Y-96530106D01*
X143494792Y-96530104D01*
X143645104Y-96379792D01*
X143645106Y-96379788D01*
X143645109Y-96379786D01*
X143770048Y-96207820D01*
X143770047Y-96207820D01*
X143770051Y-96207816D01*
X143866557Y-96018412D01*
X143932246Y-95816243D01*
X143965500Y-95606287D01*
X143965500Y-95393713D01*
X143932246Y-95183757D01*
X143866557Y-94981588D01*
X143770051Y-94792184D01*
X143770049Y-94792181D01*
X143770048Y-94792179D01*
X143645109Y-94620213D01*
X143531181Y-94506285D01*
X143497696Y-94444962D01*
X143502680Y-94375270D01*
X143544552Y-94319337D01*
X143575529Y-94302422D01*
X143707086Y-94253354D01*
X143707093Y-94253350D01*
X143822187Y-94167190D01*
X143822190Y-94167187D01*
X143908350Y-94052093D01*
X143908354Y-94052086D01*
X143958596Y-93917379D01*
X143958598Y-93917372D01*
X143964999Y-93857844D01*
X143965000Y-93857827D01*
X143965000Y-93210000D01*
X143048012Y-93210000D01*
X143080925Y-93152993D01*
X143115000Y-93025826D01*
X143115000Y-92894174D01*
X143080925Y-92767007D01*
X143048012Y-92710000D01*
X143965000Y-92710000D01*
X143965000Y-92062172D01*
X143964999Y-92062155D01*
X143958598Y-92002627D01*
X143958596Y-92002620D01*
X143908354Y-91867913D01*
X143908350Y-91867906D01*
X143822190Y-91752812D01*
X143822187Y-91752809D01*
X143707093Y-91666649D01*
X143707086Y-91666645D01*
X143572379Y-91616403D01*
X143572372Y-91616401D01*
X143512844Y-91610000D01*
X142865000Y-91610000D01*
X142865000Y-92526988D01*
X142807993Y-92494075D01*
X142680826Y-92460000D01*
X142549174Y-92460000D01*
X142422007Y-92494075D01*
X142365000Y-92526988D01*
X142365000Y-91610000D01*
X141717155Y-91610000D01*
X141657627Y-91616401D01*
X141657620Y-91616403D01*
X141522913Y-91666645D01*
X141522906Y-91666649D01*
X141407812Y-91752809D01*
X141407809Y-91752812D01*
X141321649Y-91867906D01*
X141321645Y-91867913D01*
X141271403Y-92002620D01*
X141271401Y-92002627D01*
X141265000Y-92062155D01*
X141265000Y-92710000D01*
X142181988Y-92710000D01*
X142149075Y-92767007D01*
X142115000Y-92894174D01*
X142115000Y-93025826D01*
X142149075Y-93152993D01*
X142181988Y-93210000D01*
X141265000Y-93210000D01*
X141265000Y-93857844D01*
X141271401Y-93917372D01*
X141271403Y-93917379D01*
X141321645Y-94052086D01*
X141321649Y-94052093D01*
X141407809Y-94167187D01*
X141407812Y-94167190D01*
X141522906Y-94253350D01*
X141522913Y-94253354D01*
X141654470Y-94302422D01*
X141710404Y-94344293D01*
X141734821Y-94409758D01*
X141719969Y-94478031D01*
X141698819Y-94506285D01*
X141584889Y-94620215D01*
X141459951Y-94792179D01*
X141363444Y-94981585D01*
X141297753Y-95183760D01*
X141264500Y-95393713D01*
X141264500Y-95606287D01*
X141264499Y-95606287D01*
X141289284Y-95762771D01*
X141280329Y-95832064D01*
X141254492Y-95869849D01*
X140361162Y-96763181D01*
X140299839Y-96796666D01*
X140273481Y-96799500D01*
X139609313Y-96799500D01*
X139542274Y-96779815D01*
X139496519Y-96727011D01*
X139486575Y-96657853D01*
X139515600Y-96594297D01*
X139553018Y-96565015D01*
X139628936Y-96526331D01*
X139654328Y-96507883D01*
X139654328Y-96507882D01*
X139000001Y-95853554D01*
X139000000Y-95853554D01*
X138345669Y-96507882D01*
X138345670Y-96507883D01*
X138371059Y-96526329D01*
X138446982Y-96565015D01*
X138497778Y-96612990D01*
X138514573Y-96680811D01*
X138492035Y-96746946D01*
X138437320Y-96790397D01*
X138390687Y-96799500D01*
X137341519Y-96799500D01*
X137312081Y-96790855D01*
X137282091Y-96784332D01*
X137277075Y-96780577D01*
X137274480Y-96779815D01*
X137253837Y-96763180D01*
X137196818Y-96706160D01*
X137163334Y-96644837D01*
X137160500Y-96618480D01*
X137160500Y-96538137D01*
X137180185Y-96471098D01*
X137211615Y-96437818D01*
X137242073Y-96415690D01*
X137375690Y-96282073D01*
X137486760Y-96129199D01*
X137572547Y-95960832D01*
X137612332Y-95838385D01*
X137651768Y-95780713D01*
X137716127Y-95753514D01*
X137784973Y-95765429D01*
X137836449Y-95812673D01*
X137848193Y-95838388D01*
X137887914Y-95960637D01*
X137973666Y-96128933D01*
X137992116Y-96154328D01*
X138646446Y-95500000D01*
X138646446Y-95499999D01*
X138600369Y-95453922D01*
X138650000Y-95453922D01*
X138650000Y-95546078D01*
X138673852Y-95635095D01*
X138719930Y-95714905D01*
X138785095Y-95780070D01*
X138864905Y-95826148D01*
X138953922Y-95850000D01*
X139046078Y-95850000D01*
X139135095Y-95826148D01*
X139214905Y-95780070D01*
X139280070Y-95714905D01*
X139326148Y-95635095D01*
X139350000Y-95546078D01*
X139350000Y-95499999D01*
X139353554Y-95499999D01*
X139353554Y-95500000D01*
X140007882Y-96154328D01*
X140007883Y-96154328D01*
X140026331Y-96128937D01*
X140112085Y-95960637D01*
X140170451Y-95781002D01*
X140200000Y-95594447D01*
X140200000Y-95405552D01*
X140170451Y-95218997D01*
X140112085Y-95039362D01*
X140026329Y-94871059D01*
X140007883Y-94845670D01*
X140007882Y-94845669D01*
X139353554Y-95499999D01*
X139350000Y-95499999D01*
X139350000Y-95453922D01*
X139326148Y-95364905D01*
X139280070Y-95285095D01*
X139214905Y-95219930D01*
X139135095Y-95173852D01*
X139046078Y-95150000D01*
X138953922Y-95150000D01*
X138864905Y-95173852D01*
X138785095Y-95219930D01*
X138719930Y-95285095D01*
X138673852Y-95364905D01*
X138650000Y-95453922D01*
X138600369Y-95453922D01*
X137992116Y-94845669D01*
X137992116Y-94845670D01*
X137973669Y-94871060D01*
X137887915Y-95039361D01*
X137848193Y-95161612D01*
X137808755Y-95219287D01*
X137744396Y-95246485D01*
X137675550Y-95234570D01*
X137624074Y-95187326D01*
X137612332Y-95161614D01*
X137572547Y-95039168D01*
X137486760Y-94870801D01*
X137375690Y-94717927D01*
X137242073Y-94584310D01*
X137115179Y-94492116D01*
X138345669Y-94492116D01*
X139000000Y-95146446D01*
X139000001Y-95146446D01*
X139654328Y-94492116D01*
X139628933Y-94473666D01*
X139460637Y-94387914D01*
X139281002Y-94329548D01*
X139094447Y-94300000D01*
X138905553Y-94300000D01*
X138718997Y-94329548D01*
X138539362Y-94387914D01*
X138371060Y-94473669D01*
X138345670Y-94492116D01*
X138345669Y-94492116D01*
X137115179Y-94492116D01*
X137089199Y-94473240D01*
X137082636Y-94469896D01*
X136920836Y-94387454D01*
X136741118Y-94329059D01*
X136554486Y-94299500D01*
X136554481Y-94299500D01*
X136365519Y-94299500D01*
X136365514Y-94299500D01*
X136178881Y-94329059D01*
X135999163Y-94387454D01*
X135830800Y-94473240D01*
X135743579Y-94536610D01*
X135677927Y-94584310D01*
X135677925Y-94584312D01*
X135677924Y-94584312D01*
X135544312Y-94717924D01*
X135544312Y-94717925D01*
X135544310Y-94717927D01*
X135496610Y-94783579D01*
X135433240Y-94870800D01*
X135347454Y-95039163D01*
X135289059Y-95218881D01*
X135259500Y-95405513D01*
X134763309Y-95405513D01*
X134807807Y-93417909D01*
X134828987Y-93351331D01*
X134882802Y-93306769D01*
X134952166Y-93298376D01*
X135015056Y-93328816D01*
X135019457Y-93333007D01*
X135129162Y-93442712D01*
X135278483Y-93534814D01*
X135445020Y-93589999D01*
X135547808Y-93600500D01*
X135547813Y-93600500D01*
X137347823Y-93600500D01*
X137347828Y-93600500D01*
X137450616Y-93589999D01*
X137617153Y-93534814D01*
X137766474Y-93442712D01*
X137890530Y-93318656D01*
X137890533Y-93318650D01*
X137895313Y-93313871D01*
X137956636Y-93280386D01*
X138026328Y-93285370D01*
X138055876Y-93301231D01*
X138148973Y-93368870D01*
X138245218Y-93417909D01*
X138373434Y-93483239D01*
X138373436Y-93483239D01*
X138373439Y-93483241D01*
X138613033Y-93561090D01*
X138861856Y-93600500D01*
X138861857Y-93600500D01*
X139113779Y-93600500D01*
X139113780Y-93600500D01*
X139362603Y-93561090D01*
X139602197Y-93483241D01*
X139826663Y-93368870D01*
X140030474Y-93220793D01*
X140208611Y-93042656D01*
X140356688Y-92838845D01*
X140471059Y-92614379D01*
X140548908Y-92374785D01*
X140588318Y-92125962D01*
X140588318Y-91874038D01*
X140548908Y-91625215D01*
X140471059Y-91385621D01*
X140471057Y-91385618D01*
X140471057Y-91385616D01*
X140429565Y-91304184D01*
X140356688Y-91161155D01*
X140312249Y-91099990D01*
X140208616Y-90957350D01*
X140208612Y-90957345D01*
X140030472Y-90779205D01*
X140030467Y-90779201D01*
X139826666Y-90631132D01*
X139826665Y-90631131D01*
X139826663Y-90631130D01*
X139743095Y-90588550D01*
X139602201Y-90516760D01*
X139362603Y-90438910D01*
X139113780Y-90399500D01*
X138861856Y-90399500D01*
X138795556Y-90410001D01*
X138613032Y-90438910D01*
X138373434Y-90516760D01*
X138148976Y-90631128D01*
X138148973Y-90631129D01*
X138148973Y-90631130D01*
X138055878Y-90698766D01*
X137990073Y-90722245D01*
X137922019Y-90706419D01*
X137895314Y-90686128D01*
X137766475Y-90557289D01*
X137766474Y-90557288D01*
X137617153Y-90465186D01*
X137450616Y-90410001D01*
X137450614Y-90410000D01*
X137347835Y-90399500D01*
X137347828Y-90399500D01*
X135547808Y-90399500D01*
X135547800Y-90399500D01*
X135445021Y-90410000D01*
X135445020Y-90410001D01*
X135362487Y-90437349D01*
X135278485Y-90465185D01*
X135278480Y-90465187D01*
X135129160Y-90557289D01*
X135084526Y-90601923D01*
X135023203Y-90635407D01*
X134953511Y-90630422D01*
X134897578Y-90588550D01*
X134873162Y-90523086D01*
X134872877Y-90511479D01*
X134975996Y-85905513D01*
X135259500Y-85905513D01*
X135259500Y-86094486D01*
X135289059Y-86281118D01*
X135347454Y-86460836D01*
X135376791Y-86518412D01*
X135433240Y-86629199D01*
X135544310Y-86782073D01*
X135677927Y-86915690D01*
X135830801Y-87026760D01*
X135910347Y-87067290D01*
X135999163Y-87112545D01*
X135999165Y-87112545D01*
X135999168Y-87112547D01*
X136095497Y-87143846D01*
X136178881Y-87170940D01*
X136365514Y-87200500D01*
X136365519Y-87200500D01*
X136554486Y-87200500D01*
X136671017Y-87182042D01*
X136713753Y-87175274D01*
X136783045Y-87184228D01*
X136820831Y-87210066D01*
X137475139Y-87864374D01*
X137475149Y-87864385D01*
X137479479Y-87868715D01*
X137479480Y-87868716D01*
X137591284Y-87980520D01*
X137591286Y-87980521D01*
X137591290Y-87980524D01*
X137722904Y-88056510D01*
X137728216Y-88059577D01*
X137840019Y-88089534D01*
X137880942Y-88100500D01*
X137880943Y-88100500D01*
X141028332Y-88100500D01*
X141035939Y-88100500D01*
X141035943Y-88100501D01*
X141172092Y-88100501D01*
X141239131Y-88120186D01*
X141284886Y-88172990D01*
X141292292Y-88224501D01*
X141294829Y-88242148D01*
X141294564Y-88243899D01*
X141264500Y-88433713D01*
X141264500Y-88646286D01*
X141297753Y-88856239D01*
X141363444Y-89058414D01*
X141459951Y-89247820D01*
X141584890Y-89419786D01*
X141735213Y-89570109D01*
X141907179Y-89695048D01*
X141907181Y-89695049D01*
X141907184Y-89695051D01*
X142096588Y-89791557D01*
X142298757Y-89857246D01*
X142508713Y-89890500D01*
X142508714Y-89890500D01*
X142721286Y-89890500D01*
X142721287Y-89890500D01*
X142931243Y-89857246D01*
X143133412Y-89791557D01*
X143322816Y-89695051D01*
X143344789Y-89679086D01*
X143494786Y-89570109D01*
X143494788Y-89570106D01*
X143494792Y-89570104D01*
X143645104Y-89419792D01*
X143645106Y-89419788D01*
X143645109Y-89419786D01*
X143770048Y-89247820D01*
X143770047Y-89247820D01*
X143770051Y-89247816D01*
X143866557Y-89058412D01*
X143932246Y-88856243D01*
X143965500Y-88646287D01*
X143965500Y-88433713D01*
X143932246Y-88223757D01*
X143866557Y-88021588D01*
X143770051Y-87832184D01*
X143770049Y-87832181D01*
X143770048Y-87832179D01*
X143645109Y-87660213D01*
X143494786Y-87509890D01*
X143322820Y-87384951D01*
X143322115Y-87384591D01*
X143314054Y-87380485D01*
X143263259Y-87332512D01*
X143246463Y-87264692D01*
X143268999Y-87198556D01*
X143314054Y-87159515D01*
X143322816Y-87155051D01*
X143381321Y-87112545D01*
X143494786Y-87030109D01*
X143494788Y-87030106D01*
X143494792Y-87030104D01*
X143645104Y-86879792D01*
X143645106Y-86879788D01*
X143645109Y-86879786D01*
X143770048Y-86707820D01*
X143770047Y-86707820D01*
X143770051Y-86707816D01*
X143866557Y-86518412D01*
X143932246Y-86316243D01*
X143965500Y-86106287D01*
X143965500Y-85893713D01*
X143932246Y-85683757D01*
X143866557Y-85481588D01*
X143770051Y-85292184D01*
X143770049Y-85292181D01*
X143770048Y-85292179D01*
X143645109Y-85120213D01*
X143531181Y-85006285D01*
X143497696Y-84944962D01*
X143502680Y-84875270D01*
X143544552Y-84819337D01*
X143575529Y-84802422D01*
X143707086Y-84753354D01*
X143707093Y-84753350D01*
X143822187Y-84667190D01*
X143822190Y-84667187D01*
X143908350Y-84552093D01*
X143908354Y-84552086D01*
X143958596Y-84417379D01*
X143958598Y-84417372D01*
X143964999Y-84357844D01*
X143965000Y-84357827D01*
X143965000Y-83710000D01*
X143048012Y-83710000D01*
X143080925Y-83652993D01*
X143115000Y-83525826D01*
X143115000Y-83394174D01*
X143080925Y-83267007D01*
X143048012Y-83210000D01*
X143965000Y-83210000D01*
X143965000Y-82562172D01*
X143964999Y-82562155D01*
X143958598Y-82502627D01*
X143958596Y-82502620D01*
X143908354Y-82367913D01*
X143908350Y-82367906D01*
X143822190Y-82252812D01*
X143822187Y-82252809D01*
X143707093Y-82166649D01*
X143707086Y-82166645D01*
X143572379Y-82116403D01*
X143572372Y-82116401D01*
X143512844Y-82110000D01*
X142865000Y-82110000D01*
X142865000Y-83026988D01*
X142807993Y-82994075D01*
X142680826Y-82960000D01*
X142549174Y-82960000D01*
X142422007Y-82994075D01*
X142365000Y-83026988D01*
X142365000Y-82110000D01*
X141717155Y-82110000D01*
X141657627Y-82116401D01*
X141657620Y-82116403D01*
X141522913Y-82166645D01*
X141522906Y-82166649D01*
X141407812Y-82252809D01*
X141407809Y-82252812D01*
X141321649Y-82367906D01*
X141321645Y-82367913D01*
X141271403Y-82502620D01*
X141271401Y-82502627D01*
X141265000Y-82562155D01*
X141265000Y-83210000D01*
X142181988Y-83210000D01*
X142149075Y-83267007D01*
X142115000Y-83394174D01*
X142115000Y-83525826D01*
X142149075Y-83652993D01*
X142181988Y-83710000D01*
X141265000Y-83710000D01*
X141265000Y-84357844D01*
X141271401Y-84417372D01*
X141271403Y-84417379D01*
X141321645Y-84552086D01*
X141321649Y-84552093D01*
X141407809Y-84667187D01*
X141407812Y-84667190D01*
X141522906Y-84753350D01*
X141522913Y-84753354D01*
X141654470Y-84802422D01*
X141710404Y-84844293D01*
X141734821Y-84909758D01*
X141719969Y-84978031D01*
X141698819Y-85006285D01*
X141584889Y-85120215D01*
X141459951Y-85292179D01*
X141363444Y-85481585D01*
X141297753Y-85683760D01*
X141264500Y-85893713D01*
X141264500Y-86106286D01*
X141297754Y-86316244D01*
X141297754Y-86316247D01*
X141311491Y-86358523D01*
X141313486Y-86428364D01*
X141281241Y-86484522D01*
X140902584Y-86863181D01*
X140841261Y-86896666D01*
X140814903Y-86899500D01*
X140073121Y-86899500D01*
X140006082Y-86879815D01*
X139960327Y-86827011D01*
X139950383Y-86757853D01*
X139972803Y-86702615D01*
X140026329Y-86628940D01*
X140112085Y-86460637D01*
X140170451Y-86281002D01*
X140200000Y-86094447D01*
X140200000Y-85905552D01*
X140170451Y-85718997D01*
X140112085Y-85539362D01*
X140026329Y-85371059D01*
X140007883Y-85345670D01*
X140007882Y-85345669D01*
X139350000Y-86003551D01*
X139350000Y-85953922D01*
X139326148Y-85864905D01*
X139280070Y-85785095D01*
X139214905Y-85719930D01*
X139135095Y-85673852D01*
X139046078Y-85650000D01*
X138953922Y-85650000D01*
X138864905Y-85673852D01*
X138785095Y-85719930D01*
X138719930Y-85785095D01*
X138673852Y-85864905D01*
X138650000Y-85953922D01*
X138650000Y-86003553D01*
X137992116Y-85345669D01*
X137992116Y-85345670D01*
X137973669Y-85371060D01*
X137887915Y-85539361D01*
X137848193Y-85661612D01*
X137808755Y-85719287D01*
X137744396Y-85746485D01*
X137675550Y-85734570D01*
X137624074Y-85687326D01*
X137612332Y-85661614D01*
X137572547Y-85539168D01*
X137486760Y-85370801D01*
X137375690Y-85217927D01*
X137242073Y-85084310D01*
X137115179Y-84992116D01*
X138345669Y-84992116D01*
X139000000Y-85646446D01*
X139000001Y-85646446D01*
X139654328Y-84992116D01*
X139628933Y-84973666D01*
X139460637Y-84887914D01*
X139281002Y-84829548D01*
X139094447Y-84800000D01*
X138905553Y-84800000D01*
X138718997Y-84829548D01*
X138539362Y-84887914D01*
X138371060Y-84973669D01*
X138345670Y-84992116D01*
X138345669Y-84992116D01*
X137115179Y-84992116D01*
X137089199Y-84973240D01*
X137082636Y-84969896D01*
X136920836Y-84887454D01*
X136741118Y-84829059D01*
X136554486Y-84799500D01*
X136554481Y-84799500D01*
X136365519Y-84799500D01*
X136365514Y-84799500D01*
X136178881Y-84829059D01*
X135999163Y-84887454D01*
X135830800Y-84973240D01*
X135743579Y-85036610D01*
X135677927Y-85084310D01*
X135677925Y-85084312D01*
X135677924Y-85084312D01*
X135544312Y-85217924D01*
X135544312Y-85217925D01*
X135544310Y-85217927D01*
X135496610Y-85283579D01*
X135433240Y-85370800D01*
X135347454Y-85539163D01*
X135289059Y-85718881D01*
X135259500Y-85905513D01*
X134975996Y-85905513D01*
X135016582Y-84092650D01*
X135037762Y-84026070D01*
X135091577Y-83981508D01*
X135160941Y-83973115D01*
X135205648Y-83989889D01*
X135278474Y-84034809D01*
X135278477Y-84034810D01*
X135278483Y-84034814D01*
X135445020Y-84089999D01*
X135547808Y-84100500D01*
X135547813Y-84100500D01*
X137347823Y-84100500D01*
X137347828Y-84100500D01*
X137450616Y-84089999D01*
X137617153Y-84034814D01*
X137766474Y-83942712D01*
X137890530Y-83818656D01*
X137890533Y-83818650D01*
X137895313Y-83813871D01*
X137956636Y-83780386D01*
X138026328Y-83785370D01*
X138055876Y-83801231D01*
X138148973Y-83868870D01*
X138255024Y-83922905D01*
X138373434Y-83983239D01*
X138373436Y-83983239D01*
X138373439Y-83983241D01*
X138613033Y-84061090D01*
X138861856Y-84100500D01*
X138861857Y-84100500D01*
X139113779Y-84100500D01*
X139113780Y-84100500D01*
X139362603Y-84061090D01*
X139602197Y-83983241D01*
X139826663Y-83868870D01*
X140030474Y-83720793D01*
X140208611Y-83542656D01*
X140356688Y-83338845D01*
X140471059Y-83114379D01*
X140548908Y-82874785D01*
X140588318Y-82625962D01*
X140588318Y-82374038D01*
X140548908Y-82125215D01*
X140471059Y-81885621D01*
X140471057Y-81885618D01*
X140471057Y-81885616D01*
X140429565Y-81804184D01*
X140356688Y-81661155D01*
X140312249Y-81599990D01*
X140208616Y-81457350D01*
X140208612Y-81457345D01*
X140030472Y-81279205D01*
X140030467Y-81279201D01*
X139826666Y-81131132D01*
X139826665Y-81131131D01*
X139826663Y-81131130D01*
X139756565Y-81095413D01*
X139602201Y-81016760D01*
X139362603Y-80938910D01*
X139113780Y-80899500D01*
X138861856Y-80899500D01*
X138795556Y-80910001D01*
X138613032Y-80938910D01*
X138373434Y-81016760D01*
X138148976Y-81131128D01*
X138148973Y-81131129D01*
X138148973Y-81131130D01*
X138055878Y-81198766D01*
X137990073Y-81222245D01*
X137922019Y-81206419D01*
X137895314Y-81186128D01*
X137766475Y-81057289D01*
X137766474Y-81057288D01*
X137647445Y-80983870D01*
X137617155Y-80965187D01*
X137617150Y-80965185D01*
X137610378Y-80962941D01*
X137450616Y-80910001D01*
X137450614Y-80910000D01*
X137347835Y-80899500D01*
X137347828Y-80899500D01*
X135547808Y-80899500D01*
X135547800Y-80899500D01*
X135445021Y-80910000D01*
X135445020Y-80910001D01*
X135362487Y-80937349D01*
X135278485Y-80965185D01*
X135278471Y-80965191D01*
X135278073Y-80965438D01*
X135277761Y-80965523D01*
X135271935Y-80968240D01*
X135271470Y-80967243D01*
X135210679Y-80983870D01*
X135144018Y-80962941D01*
X135099254Y-80909294D01*
X135089019Y-80857120D01*
X135172440Y-77131007D01*
X135193619Y-77064429D01*
X135247434Y-77019867D01*
X135316798Y-77011474D01*
X135379688Y-77041914D01*
X135406892Y-77077490D01*
X135433238Y-77129196D01*
X135433240Y-77129199D01*
X135544310Y-77282073D01*
X135677927Y-77415690D01*
X135830801Y-77526760D01*
X135910347Y-77567290D01*
X135999163Y-77612545D01*
X135999165Y-77612545D01*
X135999168Y-77612547D01*
X136095497Y-77643846D01*
X136178881Y-77670940D01*
X136365514Y-77700500D01*
X136365519Y-77700500D01*
X136554486Y-77700500D01*
X136741118Y-77670940D01*
X136751733Y-77667491D01*
X136920832Y-77612547D01*
X137089199Y-77526760D01*
X137115182Y-77507882D01*
X138345669Y-77507882D01*
X138345670Y-77507883D01*
X138371059Y-77526329D01*
X138539362Y-77612085D01*
X138718997Y-77670451D01*
X138905553Y-77700000D01*
X139094447Y-77700000D01*
X139281002Y-77670451D01*
X139460637Y-77612085D01*
X139628937Y-77526331D01*
X139654328Y-77507883D01*
X139654328Y-77507882D01*
X139000001Y-76853554D01*
X139000000Y-76853554D01*
X138345669Y-77507882D01*
X137115182Y-77507882D01*
X137242073Y-77415690D01*
X137375690Y-77282073D01*
X137486760Y-77129199D01*
X137572547Y-76960832D01*
X137612332Y-76838385D01*
X137651768Y-76780713D01*
X137716127Y-76753514D01*
X137784973Y-76765429D01*
X137836449Y-76812673D01*
X137848193Y-76838388D01*
X137887914Y-76960637D01*
X137973666Y-77128933D01*
X137992116Y-77154328D01*
X138650000Y-76496445D01*
X138650000Y-76546078D01*
X138673852Y-76635095D01*
X138719930Y-76714905D01*
X138785095Y-76780070D01*
X138864905Y-76826148D01*
X138953922Y-76850000D01*
X139046078Y-76850000D01*
X139135095Y-76826148D01*
X139214905Y-76780070D01*
X139280070Y-76714905D01*
X139326148Y-76635095D01*
X139350000Y-76546078D01*
X139350000Y-76499999D01*
X139353554Y-76499999D01*
X139353554Y-76500000D01*
X140007882Y-77154328D01*
X140007883Y-77154328D01*
X140026331Y-77128937D01*
X140112085Y-76960637D01*
X140170451Y-76781002D01*
X140200000Y-76594447D01*
X140200000Y-76405552D01*
X140194090Y-76368239D01*
X140191789Y-76353713D01*
X141264500Y-76353713D01*
X141264500Y-76566287D01*
X141297754Y-76776243D01*
X141321719Y-76850000D01*
X141363444Y-76978414D01*
X141459951Y-77167820D01*
X141584890Y-77339786D01*
X141735213Y-77490109D01*
X141907182Y-77615050D01*
X141915946Y-77619516D01*
X141966742Y-77667491D01*
X141983536Y-77735312D01*
X141960998Y-77801447D01*
X141915946Y-77840484D01*
X141907182Y-77844949D01*
X141735213Y-77969890D01*
X141584890Y-78120213D01*
X141459951Y-78292179D01*
X141363444Y-78481585D01*
X141297753Y-78683760D01*
X141264500Y-78893713D01*
X141264500Y-79106286D01*
X141297753Y-79316239D01*
X141363444Y-79518414D01*
X141459951Y-79707820D01*
X141584890Y-79879786D01*
X141735213Y-80030109D01*
X141907179Y-80155048D01*
X141907181Y-80155049D01*
X141907184Y-80155051D01*
X142096588Y-80251557D01*
X142298757Y-80317246D01*
X142508713Y-80350500D01*
X142508714Y-80350500D01*
X142721286Y-80350500D01*
X142721287Y-80350500D01*
X142931243Y-80317246D01*
X143133412Y-80251557D01*
X143322816Y-80155051D01*
X143344789Y-80139086D01*
X143494786Y-80030109D01*
X143494788Y-80030106D01*
X143494792Y-80030104D01*
X143645104Y-79879792D01*
X143645106Y-79879788D01*
X143645109Y-79879786D01*
X143770048Y-79707820D01*
X143770047Y-79707820D01*
X143770051Y-79707816D01*
X143866557Y-79518412D01*
X143932246Y-79316243D01*
X143965500Y-79106287D01*
X143965500Y-78893713D01*
X143932246Y-78683757D01*
X143866557Y-78481588D01*
X143770051Y-78292184D01*
X143770049Y-78292181D01*
X143770048Y-78292179D01*
X143645109Y-78120213D01*
X143494786Y-77969890D01*
X143322820Y-77844951D01*
X143322115Y-77844591D01*
X143314054Y-77840485D01*
X143263259Y-77792512D01*
X143246463Y-77724692D01*
X143268999Y-77658556D01*
X143314054Y-77619515D01*
X143322816Y-77615051D01*
X143344789Y-77599086D01*
X143494786Y-77490109D01*
X143494788Y-77490106D01*
X143494792Y-77490104D01*
X143645104Y-77339792D01*
X143645106Y-77339788D01*
X143645109Y-77339786D01*
X143770048Y-77167820D01*
X143770047Y-77167820D01*
X143770051Y-77167816D01*
X143866557Y-76978412D01*
X143932246Y-76776243D01*
X143965500Y-76566287D01*
X143965500Y-76353713D01*
X143932246Y-76143757D01*
X143866557Y-75941588D01*
X143770051Y-75752184D01*
X143770049Y-75752181D01*
X143770048Y-75752179D01*
X143645109Y-75580213D01*
X143531181Y-75466285D01*
X143497696Y-75404962D01*
X143502680Y-75335270D01*
X143544552Y-75279337D01*
X143575529Y-75262422D01*
X143707086Y-75213354D01*
X143707093Y-75213350D01*
X143822187Y-75127190D01*
X143822190Y-75127187D01*
X143908350Y-75012093D01*
X143908354Y-75012086D01*
X143958596Y-74877379D01*
X143958598Y-74877372D01*
X143964999Y-74817844D01*
X143965000Y-74817827D01*
X143965000Y-74170000D01*
X143048012Y-74170000D01*
X143080925Y-74112993D01*
X143115000Y-73985826D01*
X143115000Y-73854174D01*
X143080925Y-73727007D01*
X143048012Y-73670000D01*
X143965000Y-73670000D01*
X143965000Y-73022172D01*
X143964999Y-73022155D01*
X143958598Y-72962627D01*
X143958596Y-72962620D01*
X143908354Y-72827913D01*
X143908350Y-72827906D01*
X143822190Y-72712812D01*
X143822187Y-72712809D01*
X143707093Y-72626649D01*
X143707086Y-72626645D01*
X143572379Y-72576403D01*
X143572372Y-72576401D01*
X143512844Y-72570000D01*
X142865000Y-72570000D01*
X142865000Y-73486988D01*
X142807993Y-73454075D01*
X142680826Y-73420000D01*
X142549174Y-73420000D01*
X142422007Y-73454075D01*
X142365000Y-73486988D01*
X142365000Y-72570000D01*
X141717155Y-72570000D01*
X141657627Y-72576401D01*
X141657620Y-72576403D01*
X141522913Y-72626645D01*
X141522906Y-72626649D01*
X141407812Y-72712809D01*
X141407809Y-72712812D01*
X141321649Y-72827906D01*
X141321645Y-72827913D01*
X141271403Y-72962620D01*
X141271401Y-72962627D01*
X141265000Y-73022155D01*
X141265000Y-73670000D01*
X142181988Y-73670000D01*
X142149075Y-73727007D01*
X142115000Y-73854174D01*
X142115000Y-73985826D01*
X142149075Y-74112993D01*
X142181988Y-74170000D01*
X141265000Y-74170000D01*
X141265000Y-74817844D01*
X141271401Y-74877372D01*
X141271403Y-74877379D01*
X141321645Y-75012086D01*
X141321649Y-75012093D01*
X141407809Y-75127187D01*
X141407812Y-75127190D01*
X141522906Y-75213350D01*
X141522913Y-75213354D01*
X141654470Y-75262422D01*
X141710404Y-75304293D01*
X141734821Y-75369758D01*
X141719969Y-75438031D01*
X141698819Y-75466285D01*
X141584889Y-75580215D01*
X141459951Y-75752179D01*
X141363444Y-75941585D01*
X141297753Y-76143760D01*
X141296765Y-76150000D01*
X141264500Y-76353713D01*
X140191789Y-76353713D01*
X140170451Y-76218997D01*
X140112085Y-76039362D01*
X140026329Y-75871059D01*
X140007883Y-75845670D01*
X140007882Y-75845669D01*
X139353554Y-76499999D01*
X139350000Y-76499999D01*
X139350000Y-76453922D01*
X139326148Y-76364905D01*
X139280070Y-76285095D01*
X139214905Y-76219930D01*
X139135095Y-76173852D01*
X139046078Y-76150000D01*
X138996446Y-76150000D01*
X139654328Y-75492116D01*
X139628933Y-75473666D01*
X139460637Y-75387914D01*
X139320652Y-75342431D01*
X139262977Y-75302994D01*
X139235778Y-75238635D01*
X139247692Y-75169789D01*
X139294936Y-75118313D01*
X139358970Y-75100500D01*
X139900005Y-75100500D01*
X139900010Y-75100500D01*
X140002798Y-75089999D01*
X140169335Y-75034814D01*
X140318656Y-74942712D01*
X140442712Y-74818656D01*
X140534814Y-74669335D01*
X140589999Y-74502798D01*
X140600500Y-74400010D01*
X140600500Y-72599990D01*
X140589999Y-72497202D01*
X140534814Y-72330665D01*
X140442712Y-72181344D01*
X140318656Y-72057288D01*
X140169335Y-71965186D01*
X140002798Y-71910001D01*
X140002796Y-71910000D01*
X139900017Y-71899500D01*
X139900010Y-71899500D01*
X138099990Y-71899500D01*
X138099982Y-71899500D01*
X137997203Y-71910000D01*
X137997202Y-71910001D01*
X137914669Y-71937349D01*
X137830667Y-71965185D01*
X137830662Y-71965187D01*
X137681345Y-72057287D01*
X137552503Y-72186128D01*
X137491179Y-72219612D01*
X137421488Y-72214627D01*
X137391937Y-72198764D01*
X137298848Y-72131132D01*
X137298847Y-72131131D01*
X137298845Y-72131130D01*
X137187416Y-72074354D01*
X137074383Y-72016760D01*
X136834785Y-71938910D01*
X136585962Y-71899500D01*
X136334038Y-71899500D01*
X136267738Y-71910001D01*
X136085214Y-71938910D01*
X135845616Y-72016760D01*
X135621155Y-72131129D01*
X135548385Y-72184000D01*
X135482578Y-72207479D01*
X135414524Y-72191653D01*
X135365830Y-72141547D01*
X135351500Y-72083681D01*
X135351500Y-71029842D01*
X135351501Y-71029829D01*
X135351501Y-70861727D01*
X135336837Y-70807000D01*
X135320371Y-70745551D01*
X135316178Y-70710689D01*
X135418680Y-66132278D01*
X136677000Y-66132278D01*
X136677000Y-68152721D01*
X136711485Y-68370452D01*
X136779603Y-68580103D01*
X136779604Y-68580106D01*
X136879687Y-68776525D01*
X137009252Y-68954858D01*
X137009256Y-68954863D01*
X137165136Y-69110743D01*
X137165141Y-69110747D01*
X137234096Y-69160845D01*
X137343478Y-69240315D01*
X137471875Y-69305737D01*
X137539893Y-69340395D01*
X137539896Y-69340396D01*
X137644721Y-69374455D01*
X137749549Y-69408515D01*
X137967278Y-69443000D01*
X137967279Y-69443000D01*
X138187721Y-69443000D01*
X138187722Y-69443000D01*
X138405451Y-69408515D01*
X138615106Y-69340395D01*
X138811522Y-69240315D01*
X138989865Y-69110742D01*
X139145742Y-68954865D01*
X139275315Y-68776522D01*
X139375395Y-68580106D01*
X139443515Y-68370451D01*
X139478000Y-68152722D01*
X139478000Y-66132278D01*
X139443515Y-65914549D01*
X139375395Y-65704894D01*
X139375393Y-65704889D01*
X139319737Y-65595660D01*
X139319736Y-65595659D01*
X139292657Y-65542513D01*
X140487500Y-65542513D01*
X140487500Y-66892500D01*
X141339018Y-66892500D01*
X141328389Y-66910909D01*
X141287500Y-67063509D01*
X141287500Y-67221491D01*
X141328389Y-67374091D01*
X141339018Y-67392500D01*
X140487501Y-67392500D01*
X140487501Y-68742486D01*
X140497994Y-68845197D01*
X140553141Y-69011619D01*
X140553143Y-69011624D01*
X140645184Y-69160845D01*
X140769154Y-69284815D01*
X140918375Y-69376856D01*
X140918380Y-69376858D01*
X141084802Y-69432005D01*
X141084809Y-69432006D01*
X141187519Y-69442499D01*
X141637499Y-69442499D01*
X141637500Y-69442498D01*
X141637500Y-67690982D01*
X141655909Y-67701611D01*
X141808509Y-67742500D01*
X141966491Y-67742500D01*
X142119091Y-67701611D01*
X142137500Y-67690982D01*
X142137500Y-69442499D01*
X142587472Y-69442499D01*
X142587486Y-69442498D01*
X142690197Y-69432005D01*
X142856619Y-69376858D01*
X142856624Y-69376856D01*
X143005845Y-69284815D01*
X143129815Y-69160845D01*
X143221856Y-69011624D01*
X143221858Y-69011619D01*
X143277005Y-68845197D01*
X143277006Y-68845190D01*
X143287499Y-68742486D01*
X143287500Y-68742473D01*
X143287500Y-67392500D01*
X142435982Y-67392500D01*
X142446611Y-67374091D01*
X142487500Y-67221491D01*
X142487500Y-67063509D01*
X142446611Y-66910909D01*
X142435982Y-66892500D01*
X143287499Y-66892500D01*
X143287499Y-65542528D01*
X143287498Y-65542513D01*
X143277005Y-65439802D01*
X143221858Y-65273380D01*
X143221856Y-65273375D01*
X143129815Y-65124154D01*
X143005845Y-65000184D01*
X142856624Y-64908143D01*
X142856619Y-64908141D01*
X142690197Y-64852994D01*
X142690190Y-64852993D01*
X142587486Y-64842500D01*
X142137500Y-64842500D01*
X142137500Y-66594017D01*
X142119091Y-66583389D01*
X141966491Y-66542500D01*
X141808509Y-66542500D01*
X141655909Y-66583389D01*
X141637500Y-66594017D01*
X141637500Y-64842500D01*
X141187528Y-64842500D01*
X141187512Y-64842501D01*
X141084802Y-64852994D01*
X140918380Y-64908141D01*
X140918375Y-64908143D01*
X140769154Y-65000184D01*
X140645184Y-65124154D01*
X140553143Y-65273375D01*
X140553141Y-65273380D01*
X140497994Y-65439802D01*
X140497993Y-65439809D01*
X140487500Y-65542513D01*
X139292657Y-65542513D01*
X139275315Y-65508478D01*
X139258760Y-65485692D01*
X139145747Y-65330141D01*
X139145743Y-65330136D01*
X138989863Y-65174256D01*
X138989858Y-65174252D01*
X138811525Y-65044687D01*
X138811524Y-65044686D01*
X138811522Y-65044685D01*
X138724185Y-65000184D01*
X138615106Y-64944604D01*
X138615103Y-64944603D01*
X138405452Y-64876485D01*
X138257135Y-64852994D01*
X138187722Y-64842000D01*
X137967278Y-64842000D01*
X137897871Y-64852993D01*
X137749547Y-64876485D01*
X137539896Y-64944603D01*
X137539893Y-64944604D01*
X137343474Y-65044687D01*
X137165141Y-65174252D01*
X137165136Y-65174256D01*
X137009256Y-65330136D01*
X137009252Y-65330141D01*
X136879687Y-65508474D01*
X136779604Y-65704893D01*
X136779603Y-65704896D01*
X136711485Y-65914547D01*
X136677000Y-66132278D01*
X135418680Y-66132278D01*
X135497275Y-62621725D01*
X135518455Y-62555142D01*
X135572270Y-62510581D01*
X135621244Y-62500500D01*
X145876000Y-62500500D01*
X145943039Y-62520185D01*
G37*
%TD.AperFunction*%
%TD*%
M02*
