%TF.GenerationSoftware,KiCad,Pcbnew,9.0.3*%
%TF.CreationDate,2025-07-16T15:45:05+08:00*%
%TF.ProjectId,PiHAT_Test,50694841-545f-4546-9573-742e6b696361,rev?*%
%TF.SameCoordinates,Original*%
%TF.FileFunction,Legend,Bot*%
%TF.FilePolarity,Positive*%
%FSLAX46Y46*%
G04 Gerber Fmt 4.6, Leading zero omitted, Abs format (unit mm)*
G04 Created by KiCad (PCBNEW 9.0.3) date 2025-07-16 15:45:05*
%MOMM*%
%LPD*%
G01*
G04 APERTURE LIST*
%ADD10C,0.100000*%
%ADD11C,0.150000*%
%ADD12C,0.200000*%
%ADD13C,0.120000*%
G04 APERTURE END LIST*
D10*
X133529925Y-68172419D02*
X134006115Y-68172419D01*
X134006115Y-68172419D02*
X134053734Y-68648609D01*
X134053734Y-68648609D02*
X134006115Y-68600990D01*
X134006115Y-68600990D02*
X133910877Y-68553371D01*
X133910877Y-68553371D02*
X133672782Y-68553371D01*
X133672782Y-68553371D02*
X133577544Y-68600990D01*
X133577544Y-68600990D02*
X133529925Y-68648609D01*
X133529925Y-68648609D02*
X133482306Y-68743847D01*
X133482306Y-68743847D02*
X133482306Y-68981942D01*
X133482306Y-68981942D02*
X133529925Y-69077180D01*
X133529925Y-69077180D02*
X133577544Y-69124800D01*
X133577544Y-69124800D02*
X133672782Y-69172419D01*
X133672782Y-69172419D02*
X133910877Y-69172419D01*
X133910877Y-69172419D02*
X134006115Y-69124800D01*
X134006115Y-69124800D02*
X134053734Y-69077180D01*
X133196591Y-68172419D02*
X132863258Y-69172419D01*
X132863258Y-69172419D02*
X132529925Y-68172419D01*
D11*
X147690476Y-119669580D02*
X147738095Y-119717200D01*
X147738095Y-119717200D02*
X147880952Y-119764819D01*
X147880952Y-119764819D02*
X147976190Y-119764819D01*
X147976190Y-119764819D02*
X148119047Y-119717200D01*
X148119047Y-119717200D02*
X148214285Y-119621961D01*
X148214285Y-119621961D02*
X148261904Y-119526723D01*
X148261904Y-119526723D02*
X148309523Y-119336247D01*
X148309523Y-119336247D02*
X148309523Y-119193390D01*
X148309523Y-119193390D02*
X148261904Y-119002914D01*
X148261904Y-119002914D02*
X148214285Y-118907676D01*
X148214285Y-118907676D02*
X148119047Y-118812438D01*
X148119047Y-118812438D02*
X147976190Y-118764819D01*
X147976190Y-118764819D02*
X147880952Y-118764819D01*
X147880952Y-118764819D02*
X147738095Y-118812438D01*
X147738095Y-118812438D02*
X147690476Y-118860057D01*
X147261904Y-119764819D02*
X147261904Y-118764819D01*
X147261904Y-118764819D02*
X146690476Y-119764819D01*
X146690476Y-119764819D02*
X146690476Y-118764819D01*
X145738095Y-118764819D02*
X146214285Y-118764819D01*
X146214285Y-118764819D02*
X146261904Y-119241009D01*
X146261904Y-119241009D02*
X146214285Y-119193390D01*
X146214285Y-119193390D02*
X146119047Y-119145771D01*
X146119047Y-119145771D02*
X145880952Y-119145771D01*
X145880952Y-119145771D02*
X145785714Y-119193390D01*
X145785714Y-119193390D02*
X145738095Y-119241009D01*
X145738095Y-119241009D02*
X145690476Y-119336247D01*
X145690476Y-119336247D02*
X145690476Y-119574342D01*
X145690476Y-119574342D02*
X145738095Y-119669580D01*
X145738095Y-119669580D02*
X145785714Y-119717200D01*
X145785714Y-119717200D02*
X145880952Y-119764819D01*
X145880952Y-119764819D02*
X146119047Y-119764819D01*
X146119047Y-119764819D02*
X146214285Y-119717200D01*
X146214285Y-119717200D02*
X146261904Y-119669580D01*
X133359580Y-126424523D02*
X133407200Y-126376904D01*
X133407200Y-126376904D02*
X133454819Y-126234047D01*
X133454819Y-126234047D02*
X133454819Y-126138809D01*
X133454819Y-126138809D02*
X133407200Y-125995952D01*
X133407200Y-125995952D02*
X133311961Y-125900714D01*
X133311961Y-125900714D02*
X133216723Y-125853095D01*
X133216723Y-125853095D02*
X133026247Y-125805476D01*
X133026247Y-125805476D02*
X132883390Y-125805476D01*
X132883390Y-125805476D02*
X132692914Y-125853095D01*
X132692914Y-125853095D02*
X132597676Y-125900714D01*
X132597676Y-125900714D02*
X132502438Y-125995952D01*
X132502438Y-125995952D02*
X132454819Y-126138809D01*
X132454819Y-126138809D02*
X132454819Y-126234047D01*
X132454819Y-126234047D02*
X132502438Y-126376904D01*
X132502438Y-126376904D02*
X132550057Y-126424523D01*
X133454819Y-126853095D02*
X132454819Y-126853095D01*
X132454819Y-126853095D02*
X133454819Y-127424523D01*
X133454819Y-127424523D02*
X132454819Y-127424523D01*
X132454819Y-128329285D02*
X132454819Y-128138809D01*
X132454819Y-128138809D02*
X132502438Y-128043571D01*
X132502438Y-128043571D02*
X132550057Y-127995952D01*
X132550057Y-127995952D02*
X132692914Y-127900714D01*
X132692914Y-127900714D02*
X132883390Y-127853095D01*
X132883390Y-127853095D02*
X133264342Y-127853095D01*
X133264342Y-127853095D02*
X133359580Y-127900714D01*
X133359580Y-127900714D02*
X133407200Y-127948333D01*
X133407200Y-127948333D02*
X133454819Y-128043571D01*
X133454819Y-128043571D02*
X133454819Y-128234047D01*
X133454819Y-128234047D02*
X133407200Y-128329285D01*
X133407200Y-128329285D02*
X133359580Y-128376904D01*
X133359580Y-128376904D02*
X133264342Y-128424523D01*
X133264342Y-128424523D02*
X133026247Y-128424523D01*
X133026247Y-128424523D02*
X132931009Y-128376904D01*
X132931009Y-128376904D02*
X132883390Y-128329285D01*
X132883390Y-128329285D02*
X132835771Y-128234047D01*
X132835771Y-128234047D02*
X132835771Y-128043571D01*
X132835771Y-128043571D02*
X132883390Y-127948333D01*
X132883390Y-127948333D02*
X132931009Y-127900714D01*
X132931009Y-127900714D02*
X133026247Y-127853095D01*
X134238094Y-111954819D02*
X134238094Y-110954819D01*
X134238094Y-110954819D02*
X133999999Y-110954819D01*
X133999999Y-110954819D02*
X133857142Y-111002438D01*
X133857142Y-111002438D02*
X133761904Y-111097676D01*
X133761904Y-111097676D02*
X133714285Y-111192914D01*
X133714285Y-111192914D02*
X133666666Y-111383390D01*
X133666666Y-111383390D02*
X133666666Y-111526247D01*
X133666666Y-111526247D02*
X133714285Y-111716723D01*
X133714285Y-111716723D02*
X133761904Y-111811961D01*
X133761904Y-111811961D02*
X133857142Y-111907200D01*
X133857142Y-111907200D02*
X133999999Y-111954819D01*
X133999999Y-111954819D02*
X134238094Y-111954819D01*
X132809523Y-110954819D02*
X132999999Y-110954819D01*
X132999999Y-110954819D02*
X133095237Y-111002438D01*
X133095237Y-111002438D02*
X133142856Y-111050057D01*
X133142856Y-111050057D02*
X133238094Y-111192914D01*
X133238094Y-111192914D02*
X133285713Y-111383390D01*
X133285713Y-111383390D02*
X133285713Y-111764342D01*
X133285713Y-111764342D02*
X133238094Y-111859580D01*
X133238094Y-111859580D02*
X133190475Y-111907200D01*
X133190475Y-111907200D02*
X133095237Y-111954819D01*
X133095237Y-111954819D02*
X132904761Y-111954819D01*
X132904761Y-111954819D02*
X132809523Y-111907200D01*
X132809523Y-111907200D02*
X132761904Y-111859580D01*
X132761904Y-111859580D02*
X132714285Y-111764342D01*
X132714285Y-111764342D02*
X132714285Y-111526247D01*
X132714285Y-111526247D02*
X132761904Y-111431009D01*
X132761904Y-111431009D02*
X132809523Y-111383390D01*
X132809523Y-111383390D02*
X132904761Y-111335771D01*
X132904761Y-111335771D02*
X133095237Y-111335771D01*
X133095237Y-111335771D02*
X133190475Y-111383390D01*
X133190475Y-111383390D02*
X133238094Y-111431009D01*
X133238094Y-111431009D02*
X133285713Y-111526247D01*
X132738094Y-113954819D02*
X132738094Y-112954819D01*
X132738094Y-112954819D02*
X132499999Y-112954819D01*
X132499999Y-112954819D02*
X132357142Y-113002438D01*
X132357142Y-113002438D02*
X132261904Y-113097676D01*
X132261904Y-113097676D02*
X132214285Y-113192914D01*
X132214285Y-113192914D02*
X132166666Y-113383390D01*
X132166666Y-113383390D02*
X132166666Y-113526247D01*
X132166666Y-113526247D02*
X132214285Y-113716723D01*
X132214285Y-113716723D02*
X132261904Y-113811961D01*
X132261904Y-113811961D02*
X132357142Y-113907200D01*
X132357142Y-113907200D02*
X132499999Y-113954819D01*
X132499999Y-113954819D02*
X132738094Y-113954819D01*
X131214285Y-113954819D02*
X131785713Y-113954819D01*
X131499999Y-113954819D02*
X131499999Y-112954819D01*
X131499999Y-112954819D02*
X131595237Y-113097676D01*
X131595237Y-113097676D02*
X131690475Y-113192914D01*
X131690475Y-113192914D02*
X131785713Y-113240533D01*
X134761904Y-66454819D02*
X134761904Y-67264342D01*
X134761904Y-67264342D02*
X134714285Y-67359580D01*
X134714285Y-67359580D02*
X134666666Y-67407200D01*
X134666666Y-67407200D02*
X134571428Y-67454819D01*
X134571428Y-67454819D02*
X134380952Y-67454819D01*
X134380952Y-67454819D02*
X134285714Y-67407200D01*
X134285714Y-67407200D02*
X134238095Y-67359580D01*
X134238095Y-67359580D02*
X134190476Y-67264342D01*
X134190476Y-67264342D02*
X134190476Y-66454819D01*
X133761904Y-66550057D02*
X133714285Y-66502438D01*
X133714285Y-66502438D02*
X133619047Y-66454819D01*
X133619047Y-66454819D02*
X133380952Y-66454819D01*
X133380952Y-66454819D02*
X133285714Y-66502438D01*
X133285714Y-66502438D02*
X133238095Y-66550057D01*
X133238095Y-66550057D02*
X133190476Y-66645295D01*
X133190476Y-66645295D02*
X133190476Y-66740533D01*
X133190476Y-66740533D02*
X133238095Y-66883390D01*
X133238095Y-66883390D02*
X133809523Y-67454819D01*
X133809523Y-67454819D02*
X133190476Y-67454819D01*
X131454819Y-124857142D02*
X130978628Y-124523809D01*
X131454819Y-124285714D02*
X130454819Y-124285714D01*
X130454819Y-124285714D02*
X130454819Y-124666666D01*
X130454819Y-124666666D02*
X130502438Y-124761904D01*
X130502438Y-124761904D02*
X130550057Y-124809523D01*
X130550057Y-124809523D02*
X130645295Y-124857142D01*
X130645295Y-124857142D02*
X130788152Y-124857142D01*
X130788152Y-124857142D02*
X130883390Y-124809523D01*
X130883390Y-124809523D02*
X130931009Y-124761904D01*
X130931009Y-124761904D02*
X130978628Y-124666666D01*
X130978628Y-124666666D02*
X130978628Y-124285714D01*
X131454819Y-125809523D02*
X131454819Y-125238095D01*
X131454819Y-125523809D02*
X130454819Y-125523809D01*
X130454819Y-125523809D02*
X130597676Y-125428571D01*
X130597676Y-125428571D02*
X130692914Y-125333333D01*
X130692914Y-125333333D02*
X130740533Y-125238095D01*
X130454819Y-126714285D02*
X130454819Y-126238095D01*
X130454819Y-126238095D02*
X130931009Y-126190476D01*
X130931009Y-126190476D02*
X130883390Y-126238095D01*
X130883390Y-126238095D02*
X130835771Y-126333333D01*
X130835771Y-126333333D02*
X130835771Y-126571428D01*
X130835771Y-126571428D02*
X130883390Y-126666666D01*
X130883390Y-126666666D02*
X130931009Y-126714285D01*
X130931009Y-126714285D02*
X131026247Y-126761904D01*
X131026247Y-126761904D02*
X131264342Y-126761904D01*
X131264342Y-126761904D02*
X131359580Y-126714285D01*
X131359580Y-126714285D02*
X131407200Y-126666666D01*
X131407200Y-126666666D02*
X131454819Y-126571428D01*
X131454819Y-126571428D02*
X131454819Y-126333333D01*
X131454819Y-126333333D02*
X131407200Y-126238095D01*
X131407200Y-126238095D02*
X131359580Y-126190476D01*
X138238094Y-89954819D02*
X138238094Y-88954819D01*
X138238094Y-88954819D02*
X137999999Y-88954819D01*
X137999999Y-88954819D02*
X137857142Y-89002438D01*
X137857142Y-89002438D02*
X137761904Y-89097676D01*
X137761904Y-89097676D02*
X137714285Y-89192914D01*
X137714285Y-89192914D02*
X137666666Y-89383390D01*
X137666666Y-89383390D02*
X137666666Y-89526247D01*
X137666666Y-89526247D02*
X137714285Y-89716723D01*
X137714285Y-89716723D02*
X137761904Y-89811961D01*
X137761904Y-89811961D02*
X137857142Y-89907200D01*
X137857142Y-89907200D02*
X137999999Y-89954819D01*
X137999999Y-89954819D02*
X138238094Y-89954819D01*
X136809523Y-89288152D02*
X136809523Y-89954819D01*
X137047618Y-88907200D02*
X137285713Y-89621485D01*
X137285713Y-89621485D02*
X136666666Y-89621485D01*
X147690476Y-81629580D02*
X147738095Y-81677200D01*
X147738095Y-81677200D02*
X147880952Y-81724819D01*
X147880952Y-81724819D02*
X147976190Y-81724819D01*
X147976190Y-81724819D02*
X148119047Y-81677200D01*
X148119047Y-81677200D02*
X148214285Y-81581961D01*
X148214285Y-81581961D02*
X148261904Y-81486723D01*
X148261904Y-81486723D02*
X148309523Y-81296247D01*
X148309523Y-81296247D02*
X148309523Y-81153390D01*
X148309523Y-81153390D02*
X148261904Y-80962914D01*
X148261904Y-80962914D02*
X148214285Y-80867676D01*
X148214285Y-80867676D02*
X148119047Y-80772438D01*
X148119047Y-80772438D02*
X147976190Y-80724819D01*
X147976190Y-80724819D02*
X147880952Y-80724819D01*
X147880952Y-80724819D02*
X147738095Y-80772438D01*
X147738095Y-80772438D02*
X147690476Y-80820057D01*
X147261904Y-81724819D02*
X147261904Y-80724819D01*
X147261904Y-80724819D02*
X146690476Y-81724819D01*
X146690476Y-81724819D02*
X146690476Y-80724819D01*
X145690476Y-81724819D02*
X146261904Y-81724819D01*
X145976190Y-81724819D02*
X145976190Y-80724819D01*
X145976190Y-80724819D02*
X146071428Y-80867676D01*
X146071428Y-80867676D02*
X146166666Y-80962914D01*
X146166666Y-80962914D02*
X146261904Y-81010533D01*
X138166666Y-78954819D02*
X138499999Y-78478628D01*
X138738094Y-78954819D02*
X138738094Y-77954819D01*
X138738094Y-77954819D02*
X138357142Y-77954819D01*
X138357142Y-77954819D02*
X138261904Y-78002438D01*
X138261904Y-78002438D02*
X138214285Y-78050057D01*
X138214285Y-78050057D02*
X138166666Y-78145295D01*
X138166666Y-78145295D02*
X138166666Y-78288152D01*
X138166666Y-78288152D02*
X138214285Y-78383390D01*
X138214285Y-78383390D02*
X138261904Y-78431009D01*
X138261904Y-78431009D02*
X138357142Y-78478628D01*
X138357142Y-78478628D02*
X138738094Y-78478628D01*
X137833332Y-77954819D02*
X137214285Y-77954819D01*
X137214285Y-77954819D02*
X137547618Y-78335771D01*
X137547618Y-78335771D02*
X137404761Y-78335771D01*
X137404761Y-78335771D02*
X137309523Y-78383390D01*
X137309523Y-78383390D02*
X137261904Y-78431009D01*
X137261904Y-78431009D02*
X137214285Y-78526247D01*
X137214285Y-78526247D02*
X137214285Y-78764342D01*
X137214285Y-78764342D02*
X137261904Y-78859580D01*
X137261904Y-78859580D02*
X137309523Y-78907200D01*
X137309523Y-78907200D02*
X137404761Y-78954819D01*
X137404761Y-78954819D02*
X137690475Y-78954819D01*
X137690475Y-78954819D02*
X137785713Y-78907200D01*
X137785713Y-78907200D02*
X137833332Y-78859580D01*
X134666666Y-105454819D02*
X134999999Y-104978628D01*
X135238094Y-105454819D02*
X135238094Y-104454819D01*
X135238094Y-104454819D02*
X134857142Y-104454819D01*
X134857142Y-104454819D02*
X134761904Y-104502438D01*
X134761904Y-104502438D02*
X134714285Y-104550057D01*
X134714285Y-104550057D02*
X134666666Y-104645295D01*
X134666666Y-104645295D02*
X134666666Y-104788152D01*
X134666666Y-104788152D02*
X134714285Y-104883390D01*
X134714285Y-104883390D02*
X134761904Y-104931009D01*
X134761904Y-104931009D02*
X134857142Y-104978628D01*
X134857142Y-104978628D02*
X135238094Y-104978628D01*
X134095237Y-104883390D02*
X134190475Y-104835771D01*
X134190475Y-104835771D02*
X134238094Y-104788152D01*
X134238094Y-104788152D02*
X134285713Y-104692914D01*
X134285713Y-104692914D02*
X134285713Y-104645295D01*
X134285713Y-104645295D02*
X134238094Y-104550057D01*
X134238094Y-104550057D02*
X134190475Y-104502438D01*
X134190475Y-104502438D02*
X134095237Y-104454819D01*
X134095237Y-104454819D02*
X133904761Y-104454819D01*
X133904761Y-104454819D02*
X133809523Y-104502438D01*
X133809523Y-104502438D02*
X133761904Y-104550057D01*
X133761904Y-104550057D02*
X133714285Y-104645295D01*
X133714285Y-104645295D02*
X133714285Y-104692914D01*
X133714285Y-104692914D02*
X133761904Y-104788152D01*
X133761904Y-104788152D02*
X133809523Y-104835771D01*
X133809523Y-104835771D02*
X133904761Y-104883390D01*
X133904761Y-104883390D02*
X134095237Y-104883390D01*
X134095237Y-104883390D02*
X134190475Y-104931009D01*
X134190475Y-104931009D02*
X134238094Y-104978628D01*
X134238094Y-104978628D02*
X134285713Y-105073866D01*
X134285713Y-105073866D02*
X134285713Y-105264342D01*
X134285713Y-105264342D02*
X134238094Y-105359580D01*
X134238094Y-105359580D02*
X134190475Y-105407200D01*
X134190475Y-105407200D02*
X134095237Y-105454819D01*
X134095237Y-105454819D02*
X133904761Y-105454819D01*
X133904761Y-105454819D02*
X133809523Y-105407200D01*
X133809523Y-105407200D02*
X133761904Y-105359580D01*
X133761904Y-105359580D02*
X133714285Y-105264342D01*
X133714285Y-105264342D02*
X133714285Y-105073866D01*
X133714285Y-105073866D02*
X133761904Y-104978628D01*
X133761904Y-104978628D02*
X133809523Y-104931009D01*
X133809523Y-104931009D02*
X133904761Y-104883390D01*
X147220476Y-91169580D02*
X147268095Y-91217200D01*
X147268095Y-91217200D02*
X147410952Y-91264819D01*
X147410952Y-91264819D02*
X147506190Y-91264819D01*
X147506190Y-91264819D02*
X147649047Y-91217200D01*
X147649047Y-91217200D02*
X147744285Y-91121961D01*
X147744285Y-91121961D02*
X147791904Y-91026723D01*
X147791904Y-91026723D02*
X147839523Y-90836247D01*
X147839523Y-90836247D02*
X147839523Y-90693390D01*
X147839523Y-90693390D02*
X147791904Y-90502914D01*
X147791904Y-90502914D02*
X147744285Y-90407676D01*
X147744285Y-90407676D02*
X147649047Y-90312438D01*
X147649047Y-90312438D02*
X147506190Y-90264819D01*
X147506190Y-90264819D02*
X147410952Y-90264819D01*
X147410952Y-90264819D02*
X147268095Y-90312438D01*
X147268095Y-90312438D02*
X147220476Y-90360057D01*
X146791904Y-91264819D02*
X146791904Y-90264819D01*
X146791904Y-90264819D02*
X146220476Y-91264819D01*
X146220476Y-91264819D02*
X146220476Y-90264819D01*
X145791904Y-90360057D02*
X145744285Y-90312438D01*
X145744285Y-90312438D02*
X145649047Y-90264819D01*
X145649047Y-90264819D02*
X145410952Y-90264819D01*
X145410952Y-90264819D02*
X145315714Y-90312438D01*
X145315714Y-90312438D02*
X145268095Y-90360057D01*
X145268095Y-90360057D02*
X145220476Y-90455295D01*
X145220476Y-90455295D02*
X145220476Y-90550533D01*
X145220476Y-90550533D02*
X145268095Y-90693390D01*
X145268095Y-90693390D02*
X145839523Y-91264819D01*
X145839523Y-91264819D02*
X145220476Y-91264819D01*
X141954819Y-119761905D02*
X140954819Y-119761905D01*
X140954819Y-119761905D02*
X140954819Y-120000000D01*
X140954819Y-120000000D02*
X141002438Y-120142857D01*
X141002438Y-120142857D02*
X141097676Y-120238095D01*
X141097676Y-120238095D02*
X141192914Y-120285714D01*
X141192914Y-120285714D02*
X141383390Y-120333333D01*
X141383390Y-120333333D02*
X141526247Y-120333333D01*
X141526247Y-120333333D02*
X141716723Y-120285714D01*
X141716723Y-120285714D02*
X141811961Y-120238095D01*
X141811961Y-120238095D02*
X141907200Y-120142857D01*
X141907200Y-120142857D02*
X141954819Y-120000000D01*
X141954819Y-120000000D02*
X141954819Y-119761905D01*
X140954819Y-120666667D02*
X140954819Y-121333333D01*
X140954819Y-121333333D02*
X141954819Y-120904762D01*
X138441429Y-80454819D02*
X138441429Y-79454819D01*
X138441429Y-79454819D02*
X138203334Y-79454819D01*
X138203334Y-79454819D02*
X138060477Y-79502438D01*
X138060477Y-79502438D02*
X137965239Y-79597676D01*
X137965239Y-79597676D02*
X137917620Y-79692914D01*
X137917620Y-79692914D02*
X137870001Y-79883390D01*
X137870001Y-79883390D02*
X137870001Y-80026247D01*
X137870001Y-80026247D02*
X137917620Y-80216723D01*
X137917620Y-80216723D02*
X137965239Y-80311961D01*
X137965239Y-80311961D02*
X138060477Y-80407200D01*
X138060477Y-80407200D02*
X138203334Y-80454819D01*
X138203334Y-80454819D02*
X138441429Y-80454819D01*
X137536667Y-79454819D02*
X136917620Y-79454819D01*
X136917620Y-79454819D02*
X137250953Y-79835771D01*
X137250953Y-79835771D02*
X137108096Y-79835771D01*
X137108096Y-79835771D02*
X137012858Y-79883390D01*
X137012858Y-79883390D02*
X136965239Y-79931009D01*
X136965239Y-79931009D02*
X136917620Y-80026247D01*
X136917620Y-80026247D02*
X136917620Y-80264342D01*
X136917620Y-80264342D02*
X136965239Y-80359580D01*
X136965239Y-80359580D02*
X137012858Y-80407200D01*
X137012858Y-80407200D02*
X137108096Y-80454819D01*
X137108096Y-80454819D02*
X137393810Y-80454819D01*
X137393810Y-80454819D02*
X137489048Y-80407200D01*
X137489048Y-80407200D02*
X137536667Y-80359580D01*
X138738094Y-98954819D02*
X138738094Y-97954819D01*
X138738094Y-97954819D02*
X138499999Y-97954819D01*
X138499999Y-97954819D02*
X138357142Y-98002438D01*
X138357142Y-98002438D02*
X138261904Y-98097676D01*
X138261904Y-98097676D02*
X138214285Y-98192914D01*
X138214285Y-98192914D02*
X138166666Y-98383390D01*
X138166666Y-98383390D02*
X138166666Y-98526247D01*
X138166666Y-98526247D02*
X138214285Y-98716723D01*
X138214285Y-98716723D02*
X138261904Y-98811961D01*
X138261904Y-98811961D02*
X138357142Y-98907200D01*
X138357142Y-98907200D02*
X138499999Y-98954819D01*
X138499999Y-98954819D02*
X138738094Y-98954819D01*
X137261904Y-97954819D02*
X137738094Y-97954819D01*
X137738094Y-97954819D02*
X137785713Y-98431009D01*
X137785713Y-98431009D02*
X137738094Y-98383390D01*
X137738094Y-98383390D02*
X137642856Y-98335771D01*
X137642856Y-98335771D02*
X137404761Y-98335771D01*
X137404761Y-98335771D02*
X137309523Y-98383390D01*
X137309523Y-98383390D02*
X137261904Y-98431009D01*
X137261904Y-98431009D02*
X137214285Y-98526247D01*
X137214285Y-98526247D02*
X137214285Y-98764342D01*
X137214285Y-98764342D02*
X137261904Y-98859580D01*
X137261904Y-98859580D02*
X137309523Y-98907200D01*
X137309523Y-98907200D02*
X137404761Y-98954819D01*
X137404761Y-98954819D02*
X137642856Y-98954819D01*
X137642856Y-98954819D02*
X137738094Y-98907200D01*
X137738094Y-98907200D02*
X137785713Y-98859580D01*
X147575476Y-110129580D02*
X147623095Y-110177200D01*
X147623095Y-110177200D02*
X147765952Y-110224819D01*
X147765952Y-110224819D02*
X147861190Y-110224819D01*
X147861190Y-110224819D02*
X148004047Y-110177200D01*
X148004047Y-110177200D02*
X148099285Y-110081961D01*
X148099285Y-110081961D02*
X148146904Y-109986723D01*
X148146904Y-109986723D02*
X148194523Y-109796247D01*
X148194523Y-109796247D02*
X148194523Y-109653390D01*
X148194523Y-109653390D02*
X148146904Y-109462914D01*
X148146904Y-109462914D02*
X148099285Y-109367676D01*
X148099285Y-109367676D02*
X148004047Y-109272438D01*
X148004047Y-109272438D02*
X147861190Y-109224819D01*
X147861190Y-109224819D02*
X147765952Y-109224819D01*
X147765952Y-109224819D02*
X147623095Y-109272438D01*
X147623095Y-109272438D02*
X147575476Y-109320057D01*
X147146904Y-110224819D02*
X147146904Y-109224819D01*
X147146904Y-109224819D02*
X146575476Y-110224819D01*
X146575476Y-110224819D02*
X146575476Y-109224819D01*
X145670714Y-109558152D02*
X145670714Y-110224819D01*
X145908809Y-109177200D02*
X146146904Y-109891485D01*
X146146904Y-109891485D02*
X145527857Y-109891485D01*
X147690476Y-100859580D02*
X147738095Y-100907200D01*
X147738095Y-100907200D02*
X147880952Y-100954819D01*
X147880952Y-100954819D02*
X147976190Y-100954819D01*
X147976190Y-100954819D02*
X148119047Y-100907200D01*
X148119047Y-100907200D02*
X148214285Y-100811961D01*
X148214285Y-100811961D02*
X148261904Y-100716723D01*
X148261904Y-100716723D02*
X148309523Y-100526247D01*
X148309523Y-100526247D02*
X148309523Y-100383390D01*
X148309523Y-100383390D02*
X148261904Y-100192914D01*
X148261904Y-100192914D02*
X148214285Y-100097676D01*
X148214285Y-100097676D02*
X148119047Y-100002438D01*
X148119047Y-100002438D02*
X147976190Y-99954819D01*
X147976190Y-99954819D02*
X147880952Y-99954819D01*
X147880952Y-99954819D02*
X147738095Y-100002438D01*
X147738095Y-100002438D02*
X147690476Y-100050057D01*
X147261904Y-100954819D02*
X147261904Y-99954819D01*
X147261904Y-99954819D02*
X146690476Y-100954819D01*
X146690476Y-100954819D02*
X146690476Y-99954819D01*
X146309523Y-99954819D02*
X145690476Y-99954819D01*
X145690476Y-99954819D02*
X146023809Y-100335771D01*
X146023809Y-100335771D02*
X145880952Y-100335771D01*
X145880952Y-100335771D02*
X145785714Y-100383390D01*
X145785714Y-100383390D02*
X145738095Y-100431009D01*
X145738095Y-100431009D02*
X145690476Y-100526247D01*
X145690476Y-100526247D02*
X145690476Y-100764342D01*
X145690476Y-100764342D02*
X145738095Y-100859580D01*
X145738095Y-100859580D02*
X145785714Y-100907200D01*
X145785714Y-100907200D02*
X145880952Y-100954819D01*
X145880952Y-100954819D02*
X146166666Y-100954819D01*
X146166666Y-100954819D02*
X146261904Y-100907200D01*
X146261904Y-100907200D02*
X146309523Y-100859580D01*
X138738094Y-71954819D02*
X138738094Y-70954819D01*
X138738094Y-70954819D02*
X138499999Y-70954819D01*
X138499999Y-70954819D02*
X138357142Y-71002438D01*
X138357142Y-71002438D02*
X138261904Y-71097676D01*
X138261904Y-71097676D02*
X138214285Y-71192914D01*
X138214285Y-71192914D02*
X138166666Y-71383390D01*
X138166666Y-71383390D02*
X138166666Y-71526247D01*
X138166666Y-71526247D02*
X138214285Y-71716723D01*
X138214285Y-71716723D02*
X138261904Y-71811961D01*
X138261904Y-71811961D02*
X138357142Y-71907200D01*
X138357142Y-71907200D02*
X138499999Y-71954819D01*
X138499999Y-71954819D02*
X138738094Y-71954819D01*
X137785713Y-71050057D02*
X137738094Y-71002438D01*
X137738094Y-71002438D02*
X137642856Y-70954819D01*
X137642856Y-70954819D02*
X137404761Y-70954819D01*
X137404761Y-70954819D02*
X137309523Y-71002438D01*
X137309523Y-71002438D02*
X137261904Y-71050057D01*
X137261904Y-71050057D02*
X137214285Y-71145295D01*
X137214285Y-71145295D02*
X137214285Y-71240533D01*
X137214285Y-71240533D02*
X137261904Y-71383390D01*
X137261904Y-71383390D02*
X137833332Y-71954819D01*
X137833332Y-71954819D02*
X137214285Y-71954819D01*
X135666666Y-97889819D02*
X135999999Y-97413628D01*
X136238094Y-97889819D02*
X136238094Y-96889819D01*
X136238094Y-96889819D02*
X135857142Y-96889819D01*
X135857142Y-96889819D02*
X135761904Y-96937438D01*
X135761904Y-96937438D02*
X135714285Y-96985057D01*
X135714285Y-96985057D02*
X135666666Y-97080295D01*
X135666666Y-97080295D02*
X135666666Y-97223152D01*
X135666666Y-97223152D02*
X135714285Y-97318390D01*
X135714285Y-97318390D02*
X135761904Y-97366009D01*
X135761904Y-97366009D02*
X135857142Y-97413628D01*
X135857142Y-97413628D02*
X136238094Y-97413628D01*
X134809523Y-96889819D02*
X134999999Y-96889819D01*
X134999999Y-96889819D02*
X135095237Y-96937438D01*
X135095237Y-96937438D02*
X135142856Y-96985057D01*
X135142856Y-96985057D02*
X135238094Y-97127914D01*
X135238094Y-97127914D02*
X135285713Y-97318390D01*
X135285713Y-97318390D02*
X135285713Y-97699342D01*
X135285713Y-97699342D02*
X135238094Y-97794580D01*
X135238094Y-97794580D02*
X135190475Y-97842200D01*
X135190475Y-97842200D02*
X135095237Y-97889819D01*
X135095237Y-97889819D02*
X134904761Y-97889819D01*
X134904761Y-97889819D02*
X134809523Y-97842200D01*
X134809523Y-97842200D02*
X134761904Y-97794580D01*
X134761904Y-97794580D02*
X134714285Y-97699342D01*
X134714285Y-97699342D02*
X134714285Y-97461247D01*
X134714285Y-97461247D02*
X134761904Y-97366009D01*
X134761904Y-97366009D02*
X134809523Y-97318390D01*
X134809523Y-97318390D02*
X134904761Y-97270771D01*
X134904761Y-97270771D02*
X135095237Y-97270771D01*
X135095237Y-97270771D02*
X135190475Y-97318390D01*
X135190475Y-97318390D02*
X135238094Y-97366009D01*
X135238094Y-97366009D02*
X135285713Y-97461247D01*
X131261904Y-67954819D02*
X131261904Y-68764342D01*
X131261904Y-68764342D02*
X131214285Y-68859580D01*
X131214285Y-68859580D02*
X131166666Y-68907200D01*
X131166666Y-68907200D02*
X131071428Y-68954819D01*
X131071428Y-68954819D02*
X130880952Y-68954819D01*
X130880952Y-68954819D02*
X130785714Y-68907200D01*
X130785714Y-68907200D02*
X130738095Y-68859580D01*
X130738095Y-68859580D02*
X130690476Y-68764342D01*
X130690476Y-68764342D02*
X130690476Y-67954819D01*
X129690476Y-68954819D02*
X130261904Y-68954819D01*
X129976190Y-68954819D02*
X129976190Y-67954819D01*
X129976190Y-67954819D02*
X130071428Y-68097676D01*
X130071428Y-68097676D02*
X130166666Y-68192914D01*
X130166666Y-68192914D02*
X130261904Y-68240533D01*
X135454819Y-113857142D02*
X134978628Y-113523809D01*
X135454819Y-113285714D02*
X134454819Y-113285714D01*
X134454819Y-113285714D02*
X134454819Y-113666666D01*
X134454819Y-113666666D02*
X134502438Y-113761904D01*
X134502438Y-113761904D02*
X134550057Y-113809523D01*
X134550057Y-113809523D02*
X134645295Y-113857142D01*
X134645295Y-113857142D02*
X134788152Y-113857142D01*
X134788152Y-113857142D02*
X134883390Y-113809523D01*
X134883390Y-113809523D02*
X134931009Y-113761904D01*
X134931009Y-113761904D02*
X134978628Y-113666666D01*
X134978628Y-113666666D02*
X134978628Y-113285714D01*
X135454819Y-114809523D02*
X135454819Y-114238095D01*
X135454819Y-114523809D02*
X134454819Y-114523809D01*
X134454819Y-114523809D02*
X134597676Y-114428571D01*
X134597676Y-114428571D02*
X134692914Y-114333333D01*
X134692914Y-114333333D02*
X134740533Y-114238095D01*
X134454819Y-115428571D02*
X134454819Y-115523809D01*
X134454819Y-115523809D02*
X134502438Y-115619047D01*
X134502438Y-115619047D02*
X134550057Y-115666666D01*
X134550057Y-115666666D02*
X134645295Y-115714285D01*
X134645295Y-115714285D02*
X134835771Y-115761904D01*
X134835771Y-115761904D02*
X135073866Y-115761904D01*
X135073866Y-115761904D02*
X135264342Y-115714285D01*
X135264342Y-115714285D02*
X135359580Y-115666666D01*
X135359580Y-115666666D02*
X135407200Y-115619047D01*
X135407200Y-115619047D02*
X135454819Y-115523809D01*
X135454819Y-115523809D02*
X135454819Y-115428571D01*
X135454819Y-115428571D02*
X135407200Y-115333333D01*
X135407200Y-115333333D02*
X135359580Y-115285714D01*
X135359580Y-115285714D02*
X135264342Y-115238095D01*
X135264342Y-115238095D02*
X135073866Y-115190476D01*
X135073866Y-115190476D02*
X134835771Y-115190476D01*
X134835771Y-115190476D02*
X134645295Y-115238095D01*
X134645295Y-115238095D02*
X134550057Y-115285714D01*
X134550057Y-115285714D02*
X134502438Y-115333333D01*
X134502438Y-115333333D02*
X134454819Y-115428571D01*
X137626666Y-88454819D02*
X137959999Y-87978628D01*
X138198094Y-88454819D02*
X138198094Y-87454819D01*
X138198094Y-87454819D02*
X137817142Y-87454819D01*
X137817142Y-87454819D02*
X137721904Y-87502438D01*
X137721904Y-87502438D02*
X137674285Y-87550057D01*
X137674285Y-87550057D02*
X137626666Y-87645295D01*
X137626666Y-87645295D02*
X137626666Y-87788152D01*
X137626666Y-87788152D02*
X137674285Y-87883390D01*
X137674285Y-87883390D02*
X137721904Y-87931009D01*
X137721904Y-87931009D02*
X137817142Y-87978628D01*
X137817142Y-87978628D02*
X138198094Y-87978628D01*
X136769523Y-87788152D02*
X136769523Y-88454819D01*
X137007618Y-87407200D02*
X137245713Y-88121485D01*
X137245713Y-88121485D02*
X136626666Y-88121485D01*
D12*
X134452219Y-119773183D02*
X133976028Y-119439850D01*
X134452219Y-119201755D02*
X133452219Y-119201755D01*
X133452219Y-119201755D02*
X133452219Y-119582707D01*
X133452219Y-119582707D02*
X133499838Y-119677945D01*
X133499838Y-119677945D02*
X133547457Y-119725564D01*
X133547457Y-119725564D02*
X133642695Y-119773183D01*
X133642695Y-119773183D02*
X133785552Y-119773183D01*
X133785552Y-119773183D02*
X133880790Y-119725564D01*
X133880790Y-119725564D02*
X133928409Y-119677945D01*
X133928409Y-119677945D02*
X133976028Y-119582707D01*
X133976028Y-119582707D02*
X133976028Y-119201755D01*
X134452219Y-120725564D02*
X134452219Y-120154136D01*
X134452219Y-120439850D02*
X133452219Y-120439850D01*
X133452219Y-120439850D02*
X133595076Y-120344612D01*
X133595076Y-120344612D02*
X133690314Y-120249374D01*
X133690314Y-120249374D02*
X133737933Y-120154136D01*
X133547457Y-121106517D02*
X133499838Y-121154136D01*
X133499838Y-121154136D02*
X133452219Y-121249374D01*
X133452219Y-121249374D02*
X133452219Y-121487469D01*
X133452219Y-121487469D02*
X133499838Y-121582707D01*
X133499838Y-121582707D02*
X133547457Y-121630326D01*
X133547457Y-121630326D02*
X133642695Y-121677945D01*
X133642695Y-121677945D02*
X133737933Y-121677945D01*
X133737933Y-121677945D02*
X133880790Y-121630326D01*
X133880790Y-121630326D02*
X134452219Y-121058898D01*
X134452219Y-121058898D02*
X134452219Y-121677945D01*
D13*
%TO.C,CN5*%
X141345000Y-110690000D02*
X142615000Y-110690000D01*
X141345000Y-111960000D02*
X141345000Y-110690000D01*
X143692358Y-114070000D02*
X144005000Y-114070000D01*
X143692358Y-114930000D02*
X144005000Y-114930000D01*
X143692358Y-116610000D02*
X144005000Y-116610000D01*
X143692358Y-117470000D02*
X144005000Y-117470000D01*
X143775000Y-111530000D02*
X144005000Y-111530000D01*
X143775000Y-112390000D02*
X144005000Y-112390000D01*
X144005000Y-110580000D02*
X144005000Y-118420000D01*
X144005000Y-113230000D02*
X146765000Y-113230000D01*
X144005000Y-115770000D02*
X146765000Y-115770000D01*
X144005000Y-118420000D02*
X146765000Y-118420000D01*
X146765000Y-110580000D02*
X144005000Y-110580000D01*
X146765000Y-114070000D02*
X152765000Y-114070000D01*
X146765000Y-116610000D02*
X152765000Y-116610000D01*
X146765000Y-118420000D02*
X146765000Y-110580000D01*
X152765000Y-114070000D02*
X152765000Y-114930000D01*
X152765000Y-114930000D02*
X146765000Y-114930000D01*
X152765000Y-116610000D02*
X152765000Y-117470000D01*
X152765000Y-117470000D02*
X146765000Y-117470000D01*
X146765000Y-111530000D02*
X152765000Y-111530000D01*
X152765000Y-112390000D01*
X146765000Y-112390000D01*
X146765000Y-111530000D01*
G36*
X146765000Y-111530000D02*
G01*
X152765000Y-111530000D01*
X152765000Y-112390000D01*
X146765000Y-112390000D01*
X146765000Y-111530000D01*
G37*
%TO.C,CN6*%
X134580000Y-125005000D02*
X134580000Y-127765000D01*
X134580000Y-127765000D02*
X142420000Y-127765000D01*
X135530000Y-124692358D02*
X135530000Y-125005000D01*
X135530000Y-133765000D02*
X135530000Y-127765000D01*
X136390000Y-124692358D02*
X136390000Y-125005000D01*
X136390000Y-127765000D02*
X136390000Y-133765000D01*
X136390000Y-133765000D02*
X135530000Y-133765000D01*
X137230000Y-125005000D02*
X137230000Y-127765000D01*
X138070000Y-124692358D02*
X138070000Y-125005000D01*
X138070000Y-133765000D02*
X138070000Y-127765000D01*
X138930000Y-124692358D02*
X138930000Y-125005000D01*
X138930000Y-127765000D02*
X138930000Y-133765000D01*
X138930000Y-133765000D02*
X138070000Y-133765000D01*
X139770000Y-125005000D02*
X139770000Y-127765000D01*
X140610000Y-124775000D02*
X140610000Y-125005000D01*
X141040000Y-122345000D02*
X142310000Y-122345000D01*
X141470000Y-124775000D02*
X141470000Y-125005000D01*
X142310000Y-122345000D02*
X142310000Y-123615000D01*
X142420000Y-125005000D02*
X134580000Y-125005000D01*
X142420000Y-127765000D02*
X142420000Y-125005000D01*
X141470000Y-127765000D02*
X140610000Y-127765000D01*
X140610000Y-133765000D01*
X141470000Y-133765000D01*
X141470000Y-127765000D01*
G36*
X141470000Y-127765000D02*
G01*
X140610000Y-127765000D01*
X140610000Y-133765000D01*
X141470000Y-133765000D01*
X141470000Y-127765000D01*
G37*
%TO.C,D6*%
X137703335Y-112720000D02*
G75*
G02*
X137703335Y-110280000I-1255517J1220000D01*
G01*
%TO.C,D1*%
X130764000Y-115440000D02*
X130920000Y-115440000D01*
X133080000Y-115440000D02*
X133236000Y-115440000D01*
X130920000Y-118040961D02*
G75*
G02*
X130920000Y-115959039I1080000J1040961D01*
G01*
X130920000Y-118671437D02*
G75*
G02*
X130764484Y-115440000I1080000J1671437D01*
G01*
X133080000Y-115959039D02*
G75*
G02*
X133080000Y-118040961I-1080000J-1040961D01*
G01*
X133235516Y-115440000D02*
G75*
G02*
X133080000Y-118671437I-1235516J-1560000D01*
G01*
%TO.C,U2*%
X135367500Y-62782500D02*
X144597500Y-62782500D01*
X135367500Y-70252500D02*
X135367500Y-62782500D01*
X136577500Y-63742500D02*
X136827500Y-64742500D01*
X136577500Y-65092500D02*
X136577500Y-69392500D01*
X136577500Y-69392500D02*
X137327500Y-69392500D01*
X136827500Y-64742500D02*
X137327500Y-64742500D01*
X137327500Y-64742500D02*
X137327500Y-65092500D01*
X137327500Y-65092500D02*
X136577500Y-65092500D01*
X138827500Y-64742500D02*
X139327500Y-64742500D01*
X138827500Y-65092500D02*
X138827500Y-64742500D01*
X138827500Y-69392500D02*
X139577500Y-69392500D01*
X139327500Y-64742500D02*
X139577500Y-63742500D01*
X139577500Y-63742500D02*
X136577500Y-63742500D01*
X139577500Y-65092500D02*
X138827500Y-65092500D01*
X139577500Y-69392500D02*
X139577500Y-65092500D01*
X140387500Y-63742500D02*
X140637500Y-64742500D01*
X140387500Y-65092500D02*
X140387500Y-69392500D01*
X140387500Y-69392500D02*
X141137500Y-69392500D01*
X140637500Y-64742500D02*
X141137500Y-64742500D01*
X141137500Y-64742500D02*
X141137500Y-65092500D01*
X141137500Y-65092500D02*
X140387500Y-65092500D01*
X142637500Y-64742500D02*
X143137500Y-64742500D01*
X142637500Y-65092500D02*
X142637500Y-64742500D01*
X142637500Y-69392500D02*
X143387500Y-69392500D01*
X143137500Y-64742500D02*
X143387500Y-63742500D01*
X143387500Y-63742500D02*
X140387500Y-63742500D01*
X143387500Y-65092500D02*
X142637500Y-65092500D01*
X143387500Y-69392500D02*
X143387500Y-65092500D01*
X144597500Y-62782500D02*
X144597500Y-70252500D01*
X144597500Y-70252500D02*
X135367500Y-70252500D01*
X144987500Y-62392500D02*
X142987500Y-62392500D01*
X144987500Y-63642500D02*
X144987500Y-62392500D01*
X137327853Y-69392344D02*
G75*
G02*
X138827500Y-69392500I749647J-1700156D01*
G01*
X141137853Y-69392344D02*
G75*
G02*
X142637500Y-69392500I749647J-1700156D01*
G01*
%TO.C,R15*%
X132000000Y-122080000D02*
X132000000Y-121460000D01*
X132920000Y-123000000D02*
G75*
G02*
X131080000Y-123000000I-920000J0D01*
G01*
X131080000Y-123000000D02*
G75*
G02*
X132920000Y-123000000I920000J0D01*
G01*
%TO.C,D4*%
X137703335Y-93220000D02*
G75*
G02*
X137703335Y-90780000I-1255517J1220000D01*
G01*
%TO.C,CN1*%
X141345000Y-72650000D02*
X142615000Y-72650000D01*
X141345000Y-73920000D02*
X141345000Y-72650000D01*
X143692358Y-76030000D02*
X144005000Y-76030000D01*
X143692358Y-76890000D02*
X144005000Y-76890000D01*
X143692358Y-78570000D02*
X144005000Y-78570000D01*
X143692358Y-79430000D02*
X144005000Y-79430000D01*
X143775000Y-73490000D02*
X144005000Y-73490000D01*
X143775000Y-74350000D02*
X144005000Y-74350000D01*
X144005000Y-72540000D02*
X144005000Y-80380000D01*
X144005000Y-75190000D02*
X146765000Y-75190000D01*
X144005000Y-77730000D02*
X146765000Y-77730000D01*
X144005000Y-80380000D02*
X146765000Y-80380000D01*
X146765000Y-72540000D02*
X144005000Y-72540000D01*
X146765000Y-76030000D02*
X152765000Y-76030000D01*
X146765000Y-78570000D02*
X152765000Y-78570000D01*
X146765000Y-80380000D02*
X146765000Y-72540000D01*
X152765000Y-76030000D02*
X152765000Y-76890000D01*
X152765000Y-76890000D02*
X146765000Y-76890000D01*
X152765000Y-78570000D02*
X152765000Y-79430000D01*
X152765000Y-79430000D02*
X146765000Y-79430000D01*
X146765000Y-73490000D02*
X152765000Y-73490000D01*
X152765000Y-74350000D01*
X146765000Y-74350000D01*
X146765000Y-73490000D01*
G36*
X146765000Y-73490000D02*
G01*
X152765000Y-73490000D01*
X152765000Y-74350000D01*
X146765000Y-74350000D01*
X146765000Y-73490000D01*
G37*
%TO.C,R3*%
X138080000Y-76500000D02*
X137460000Y-76500000D01*
X139920000Y-76500000D02*
G75*
G02*
X138080000Y-76500000I-920000J0D01*
G01*
X138080000Y-76500000D02*
G75*
G02*
X139920000Y-76500000I920000J0D01*
G01*
%TO.C,R8*%
X138080000Y-105000000D02*
X137460000Y-105000000D01*
X139920000Y-105000000D02*
G75*
G02*
X138080000Y-105000000I-920000J0D01*
G01*
X138080000Y-105000000D02*
G75*
G02*
X139920000Y-105000000I920000J0D01*
G01*
%TO.C,CN2*%
X141345000Y-82190000D02*
X142615000Y-82190000D01*
X141345000Y-83460000D02*
X141345000Y-82190000D01*
X143692358Y-85570000D02*
X144005000Y-85570000D01*
X143692358Y-86430000D02*
X144005000Y-86430000D01*
X143692358Y-88110000D02*
X144005000Y-88110000D01*
X143692358Y-88970000D02*
X144005000Y-88970000D01*
X143775000Y-83030000D02*
X144005000Y-83030000D01*
X143775000Y-83890000D02*
X144005000Y-83890000D01*
X144005000Y-82080000D02*
X144005000Y-89920000D01*
X144005000Y-84730000D02*
X146765000Y-84730000D01*
X144005000Y-87270000D02*
X146765000Y-87270000D01*
X144005000Y-89920000D02*
X146765000Y-89920000D01*
X146765000Y-82080000D02*
X144005000Y-82080000D01*
X146765000Y-85570000D02*
X152765000Y-85570000D01*
X146765000Y-88110000D02*
X152765000Y-88110000D01*
X146765000Y-89920000D02*
X146765000Y-82080000D01*
X152765000Y-85570000D02*
X152765000Y-86430000D01*
X152765000Y-86430000D02*
X146765000Y-86430000D01*
X152765000Y-88110000D02*
X152765000Y-88970000D01*
X152765000Y-88970000D02*
X146765000Y-88970000D01*
X146765000Y-83030000D02*
X152765000Y-83030000D01*
X152765000Y-83890000D01*
X146765000Y-83890000D01*
X146765000Y-83030000D01*
G36*
X146765000Y-83030000D02*
G01*
X152765000Y-83030000D01*
X152765000Y-83890000D01*
X146765000Y-83890000D01*
X146765000Y-83030000D01*
G37*
%TO.C,D7*%
X137780000Y-118703335D02*
G75*
G02*
X140220000Y-118703335I1220000J1255517D01*
G01*
%TO.C,D3*%
X137703335Y-83720000D02*
G75*
G02*
X137703335Y-81280000I-1255517J1220000D01*
G01*
%TO.C,D5*%
X137715517Y-102220000D02*
G75*
G02*
X137715517Y-99780000I-1255517J1220000D01*
G01*
%TO.C,CN4*%
X141230000Y-101150000D02*
X142500000Y-101150000D01*
X141230000Y-102420000D02*
X141230000Y-101150000D01*
X143577358Y-104530000D02*
X143890000Y-104530000D01*
X143577358Y-105390000D02*
X143890000Y-105390000D01*
X143577358Y-107070000D02*
X143890000Y-107070000D01*
X143577358Y-107930000D02*
X143890000Y-107930000D01*
X143660000Y-101990000D02*
X143890000Y-101990000D01*
X143660000Y-102850000D02*
X143890000Y-102850000D01*
X143890000Y-101040000D02*
X143890000Y-108880000D01*
X143890000Y-103690000D02*
X146650000Y-103690000D01*
X143890000Y-106230000D02*
X146650000Y-106230000D01*
X143890000Y-108880000D02*
X146650000Y-108880000D01*
X146650000Y-101040000D02*
X143890000Y-101040000D01*
X146650000Y-104530000D02*
X152650000Y-104530000D01*
X146650000Y-107070000D02*
X152650000Y-107070000D01*
X146650000Y-108880000D02*
X146650000Y-101040000D01*
X152650000Y-104530000D02*
X152650000Y-105390000D01*
X152650000Y-105390000D02*
X146650000Y-105390000D01*
X152650000Y-107070000D02*
X152650000Y-107930000D01*
X152650000Y-107930000D02*
X146650000Y-107930000D01*
X146650000Y-101990000D02*
X152650000Y-101990000D01*
X152650000Y-102850000D01*
X146650000Y-102850000D01*
X146650000Y-101990000D01*
G36*
X146650000Y-101990000D02*
G01*
X152650000Y-101990000D01*
X152650000Y-102850000D01*
X146650000Y-102850000D01*
X146650000Y-101990000D01*
G37*
%TO.C,CN3*%
X141345000Y-91690000D02*
X142615000Y-91690000D01*
X141345000Y-92960000D02*
X141345000Y-91690000D01*
X143692358Y-95070000D02*
X144005000Y-95070000D01*
X143692358Y-95930000D02*
X144005000Y-95930000D01*
X143692358Y-97610000D02*
X144005000Y-97610000D01*
X143692358Y-98470000D02*
X144005000Y-98470000D01*
X143775000Y-92530000D02*
X144005000Y-92530000D01*
X143775000Y-93390000D02*
X144005000Y-93390000D01*
X144005000Y-91580000D02*
X144005000Y-99420000D01*
X144005000Y-94230000D02*
X146765000Y-94230000D01*
X144005000Y-96770000D02*
X146765000Y-96770000D01*
X144005000Y-99420000D02*
X146765000Y-99420000D01*
X146765000Y-91580000D02*
X144005000Y-91580000D01*
X146765000Y-95070000D02*
X152765000Y-95070000D01*
X146765000Y-97610000D02*
X152765000Y-97610000D01*
X146765000Y-99420000D02*
X146765000Y-91580000D01*
X152765000Y-95070000D02*
X152765000Y-95930000D01*
X152765000Y-95930000D02*
X146765000Y-95930000D01*
X152765000Y-97610000D02*
X152765000Y-98470000D01*
X152765000Y-98470000D02*
X146765000Y-98470000D01*
X146765000Y-92530000D02*
X152765000Y-92530000D01*
X152765000Y-93390000D01*
X146765000Y-93390000D01*
X146765000Y-92530000D01*
G36*
X146765000Y-92530000D02*
G01*
X152765000Y-92530000D01*
X152765000Y-93390000D01*
X146765000Y-93390000D01*
X146765000Y-92530000D01*
G37*
%TO.C,D2*%
X137744483Y-72280000D02*
G75*
G02*
X137744483Y-74720000I1255517J-1220000D01*
G01*
%TO.C,R6*%
X138080000Y-95500000D02*
X137460000Y-95500000D01*
X139920000Y-95500000D02*
G75*
G02*
X138080000Y-95500000I-920000J0D01*
G01*
X138080000Y-95500000D02*
G75*
G02*
X139920000Y-95500000I920000J0D01*
G01*
%TO.C,U1*%
X129690000Y-69390000D02*
X134310000Y-69390000D01*
X129690000Y-72650000D02*
X131070000Y-72650000D01*
X129690000Y-76350000D02*
X131070000Y-76350000D01*
X129690000Y-79610000D02*
X129690000Y-69390000D01*
X129690000Y-79610000D02*
X134310000Y-79610000D01*
X131070000Y-79610000D02*
X131070000Y-69390000D01*
X134310000Y-79610000D02*
X134310000Y-69390000D01*
%TO.C,R10*%
X138080000Y-114500000D02*
X137460000Y-114500000D01*
X139920000Y-114500000D02*
G75*
G02*
X138080000Y-114500000I-920000J0D01*
G01*
X138080000Y-114500000D02*
G75*
G02*
X139920000Y-114500000I920000J0D01*
G01*
%TO.C,R4*%
X138080000Y-86000000D02*
X137460000Y-86000000D01*
X139920000Y-86000000D02*
G75*
G02*
X138080000Y-86000000I-920000J0D01*
G01*
X138080000Y-86000000D02*
G75*
G02*
X139920000Y-86000000I920000J0D01*
G01*
%TO.C,R12*%
X136000000Y-118200000D02*
X136000000Y-118820000D01*
X136920000Y-117280000D02*
G75*
G02*
X135080000Y-117280000I-920000J0D01*
G01*
X135080000Y-117280000D02*
G75*
G02*
X136920000Y-117280000I920000J0D01*
G01*
%TO.C,J1_I2C1*%
X131120000Y-85150000D02*
X131120000Y-95420000D01*
X133880000Y-82500000D02*
X132500000Y-82500000D01*
X133880000Y-83880000D02*
X133880000Y-82500000D01*
X133880000Y-85150000D02*
X131120000Y-85150000D01*
X133880000Y-85150000D02*
X133880000Y-95420000D01*
X133880000Y-95420000D02*
X131120000Y-95420000D01*
%TD*%
M02*
