%TF.GenerationSoftware,KiCad,Pcbnew,9.0.3*%
%TF.CreationDate,2025-07-16T15:45:05+08:00*%
%TF.ProjectId,PiHAT_Test,50694841-545f-4546-9573-742e6b696361,rev?*%
%TF.SameCoordinates,Original*%
%TF.FileFunction,Legend,Top*%
%TF.FilePolarity,Positive*%
%FSLAX46Y46*%
G04 Gerber Fmt 4.6, Leading zero omitted, Abs format (unit mm)*
G04 Created by KiCad (PCBNEW 9.0.3) date 2025-07-16 15:45:05*
%MOMM*%
%LPD*%
G01*
G04 APERTURE LIST*
%ADD10C,0.120000*%
G04 APERTURE END LIST*
D10*
%TO.C,H1*%
X123040000Y-126210000D02*
X123040000Y-67210000D01*
X124000000Y-71250000D02*
X124000000Y-122170000D01*
X124000000Y-71250000D02*
X126600000Y-71250000D01*
X124000000Y-122170000D02*
X129200000Y-122170000D01*
X126100000Y-64150000D02*
X150100000Y-64150000D01*
X126600000Y-71250000D02*
X126600000Y-73850000D01*
X126600000Y-73850000D02*
X129200000Y-73850000D01*
X127870000Y-71250000D02*
X129200000Y-71250000D01*
X129200000Y-71250000D02*
X129200000Y-72580000D01*
X129200000Y-73850000D02*
X129200000Y-122170000D01*
X129540000Y-129270000D02*
X126100000Y-129270000D01*
X129540000Y-129270000D02*
X129540000Y-130470000D01*
X129540000Y-130470000D02*
X146660000Y-130470000D01*
X146660000Y-129270000D02*
X150100000Y-129270000D01*
X146660000Y-130470000D02*
X146660000Y-129270000D01*
X153160000Y-70900000D02*
X153160000Y-67210000D01*
X153160000Y-82320000D02*
X153860000Y-82320000D01*
X153160000Y-101550000D02*
X153160000Y-82320000D01*
X153160000Y-109670000D02*
X154960000Y-109670000D01*
X153160000Y-114150000D02*
X153160000Y-109670000D01*
X153160000Y-122270000D02*
X154960000Y-122270000D01*
X153160000Y-126210000D02*
X153160000Y-122270000D01*
X153860000Y-70900000D02*
X153160000Y-70900000D01*
X153860000Y-82320000D02*
X153860000Y-70900000D01*
X154960000Y-101550000D02*
X153160000Y-101550000D01*
X154960000Y-109670000D02*
X154960000Y-101550000D01*
X154960000Y-114150000D02*
X153160000Y-114150000D01*
X154960000Y-122270000D02*
X154960000Y-114150000D01*
X123040000Y-67210000D02*
G75*
G02*
X126100000Y-64150000I3059999J1D01*
G01*
X126100000Y-129270000D02*
G75*
G02*
X123040000Y-126210000I-1J3059999D01*
G01*
X150100000Y-64150000D02*
G75*
G02*
X153160000Y-67210000I0J-3060000D01*
G01*
X153160000Y-126210000D02*
G75*
G02*
X150100000Y-129270000I-3060000J0D01*
G01*
%TD*%
M02*
