M48
; DRILL file {KiCad 9.0.3} date 2025-07-16T15:45:00+0800
; FORMAT={-:-/ absolute / metric / decimal}
; #@! TF.CreationDate,2025-07-16T15:45:00+08:00
; #@! TF.GenerationSoftware,Kicad,Pcbnew,9.0.3
; #@! TF.FileFunction,MixedPlating,1,2
FMAT,2
METRIC
; #@! TA.AperFunction,Plated,PTH,ComponentDrill
T1C0.700
; #@! TA.AperFunction,Plated,PTH,ComponentDrill
T2C0.900
; #@! TA.AperFunction,Plated,PTH,ComponentDrill
T3C1.000
; #@! TA.AperFunction,Plated,PTH,ComponentDrill
T4C1.100
; #@! TA.AperFunction,Plated,PTH,ComponentDrill
T5C1.200
; #@! TA.AperFunction,NonPlated,NPTH,ComponentDrill
T6C2.750
%
G90
G05
T1
X132.0Y-120.46
X132.0Y-123.0
X136.0Y-117.28
X136.0Y-119.82
X136.46Y-76.5
X136.46Y-86.0
X136.46Y-95.5
X136.46Y-105.0
X136.46Y-114.5
X139.0Y-76.5
X139.0Y-86.0
X139.0Y-95.5
X139.0Y-105.0
X139.0Y-114.5
T2
X132.0Y-115.73
X132.0Y-118.27
T3
X125.33Y-72.58
X125.33Y-75.12
X125.33Y-77.66
X125.33Y-80.2
X125.33Y-82.74
X125.33Y-85.28
X125.33Y-87.82
X125.33Y-90.36
X125.33Y-92.9
X125.33Y-95.44
X125.33Y-97.98
X125.33Y-100.52
X125.33Y-103.06
X125.33Y-105.6
X125.33Y-108.14
X125.33Y-110.68
X125.33Y-113.22
X125.33Y-115.76
X125.33Y-118.3
X125.33Y-120.84
X127.87Y-72.58
X127.87Y-75.12
X127.87Y-77.66
X127.87Y-80.2
X127.87Y-82.74
X127.87Y-85.28
X127.87Y-87.82
X127.87Y-90.36
X127.87Y-92.9
X127.87Y-95.44
X127.87Y-97.98
X127.87Y-100.52
X127.87Y-103.06
X127.87Y-105.6
X127.87Y-108.14
X127.87Y-110.68
X127.87Y-113.22
X127.87Y-115.76
X127.87Y-118.3
X127.87Y-120.84
X132.5Y-83.88
X132.5Y-86.42
X132.5Y-88.96
X132.5Y-91.5
X132.5Y-94.04
X135.96Y-123.615
X138.5Y-123.615
X141.04Y-123.615
X142.5Y-102.42
X142.5Y-104.96
X142.5Y-107.5
X142.615Y-73.92
X142.615Y-76.46
X142.615Y-79.0
X142.615Y-83.46
X142.615Y-86.0
X142.615Y-88.54
X142.615Y-92.96
X142.615Y-95.5
X142.615Y-98.04
X142.615Y-111.96
X142.615Y-114.5
X142.615Y-117.04
T4
X132.95Y-71.96
X132.95Y-74.5
X132.95Y-77.04
X136.448Y-82.5
X136.448Y-92.0
X136.448Y-111.5
X136.46Y-73.5
X136.46Y-101.0
X138.988Y-82.5
X138.988Y-92.0
X138.988Y-111.5
X139.0Y-73.5
X139.0Y-101.0
X139.0Y-117.448
X139.0Y-119.988
T5
X138.077Y-67.142
X141.887Y-67.142
T6
X126.6Y-67.71
X126.6Y-125.71
X149.6Y-67.71
X149.6Y-125.71
M30
